<?xml version="1.0" encoding="UTF-8" standalone="no"?>
<!-- Created with Inkscape (http://www.inkscape.org/) -->
<svg
   xmlns:dc="http://purl.org/dc/elements/1.1/"
   xmlns:cc="http://creativecommons.org/ns#"
   xmlns:rdf="http://www.w3.org/1999/02/22-rdf-syntax-ns#"
   xmlns:svg="http://www.w3.org/2000/svg"
   xmlns="http://www.w3.org/2000/svg"
   xmlns:sodipodi="http://sodipodi.sourceforge.net/DTD/sodipodi-0.dtd"
   xmlns:inkscape="http://www.inkscape.org/namespaces/inkscape"
   width="1052.3622"
   height="744.09448"
   id="svg2529"
   sodipodi:version="0.32"
   inkscape:version="0.46"
   version="1.0"
   sodipodi:docname="basse - V I.svg"
   inkscape:output_extension="org.inkscape.output.svg.inkscape">
  <defs
     id="defs2531">
    <marker
       inkscape:stockid="Arrow1Lend"
       orient="auto"
       refY="0.0"
       refX="0.0"
       id="Arrow1Lend"
       style="overflow:visible;">
      <path
         id="path3697"
         d="M 0.0,0.0 L 5.0,-5.0 L -12.5,0.0 L 5.0,5.0 L 0.0,0.0 z "
         style="fill-rule:evenodd;stroke:#000000;stroke-width:1.0pt;marker-start:none;"
         transform="scale(0.8) rotate(180) translate(12.5,0)" />
    </marker>
    <marker
       inkscape:stockid="Arrow2Lend"
       orient="auto"
       refY="0.0"
       refX="0.0"
       id="Arrow2Lend"
       style="overflow:visible;">
      <path
         id="path3715"
         style="font-size:12.0;fill-rule:evenodd;stroke-width:0.62500000;stroke-linejoin:round;"
         d="M 8.7185878,4.0337352 L -2.2072895,0.016013256 L 8.7185884,-4.0017078 C 6.9730900,-1.6296469 6.9831476,1.6157441 8.7185878,4.0337352 z "
         transform="scale(1.1) rotate(180) translate(1,0)" />
    </marker>
    <inkscape:perspective
       sodipodi:type="inkscape:persp3d"
       inkscape:vp_x="0 : 526.18109 : 1"
       inkscape:vp_y="0 : 1000 : 0"
       inkscape:vp_z="744.09448 : 526.18109 : 1"
       inkscape:persp3d-origin="372.04724 : 350.78739 : 1"
       id="perspective2537" />
    <clipPath
       id="clipPath2576"
       clipPathUnits="userSpaceOnUse">
      <path
         id="path2578"
         d="M 0,841.98 L 595.02,841.98 L 595.02,50 L 0,50 L 0,841.98 z" />
    </clipPath>
    <inkscape:perspective
       id="perspective2566"
       inkscape:persp3d-origin="372.04724 : 350.78739 : 1"
       inkscape:vp_z="744.09448 : 526.18109 : 1"
       inkscape:vp_y="0 : 1000 : 0"
       inkscape:vp_x="0 : 526.18109 : 1"
       sodipodi:type="inkscape:persp3d" />
  </defs>
  <sodipodi:namedview
     id="base"
     pagecolor="#ffffff"
     bordercolor="#666666"
     borderopacity="1.0"
     inkscape:pageopacity="0.0"
     inkscape:pageshadow="2"
     inkscape:zoom="2"
     inkscape:cx="382.35249"
     inkscape:cy="559.94098"
     inkscape:document-units="px"
     inkscape:current-layer="layer2"
     showgrid="false"
     inkscape:window-width="1680"
     inkscape:window-height="1001"
     inkscape:window-x="-4"
     inkscape:window-y="-4"
     units="cm" />
  <metadata
     id="metadata2534">
    <rdf:RDF>
      <cc:Work
         rdf:about="">
        <dc:format>image/svg+xml</dc:format>
        <dc:type
           rdf:resource="http://purl.org/dc/dcmitype/StillImage" />
      </cc:Work>
    </rdf:RDF>
  </metadata>
  <g
     inkscape:label="Calque 1"
     inkscape:groupmode="layer"
     id="layer1"
     sodipodi:insensitive="true">
    <g
       id="g2731"
       transform="translate(23.392741,-235.6533)">
      <path
         id="path2582"
         style="fill:#cdcdcd;fill-opacity:1;fill-rule:evenodd;stroke:none"
         d="M 290.8946,369.9033 L 296.8946,366.9033 L 302.8946,369.9033 L 296.8946,372.9033 L 290.8946,369.9033" />
      <path
         id="path2584"
         style="fill:#cdcdcd;fill-opacity:1;fill-rule:evenodd;stroke:none"
         d="M 381.4946,369.9033 L 387.4946,366.9033 L 393.4946,369.9033 L 387.4946,372.9033 L 381.4946,369.9033" />
      <path
         id="path2586"
         style="fill:#cdcdcd;fill-opacity:1;fill-rule:evenodd;stroke:none"
         d="M 472.1696,369.9033 L 478.1696,366.9033 L 484.1696,369.9033 L 478.1696,372.9033 L 472.1696,369.9033" />
      <path
         id="path2588"
         style="fill:#cdcdcd;fill-opacity:1;fill-rule:evenodd;stroke:none"
         d="M 562.7696,369.9033 L 568.7696,366.9033 L 574.7696,369.9033 L 568.7696,372.9033 L 562.7696,369.9033" />
      <path
         id="path2590"
         style="fill:#cdcdcd;fill-opacity:1;fill-rule:evenodd;stroke:none"
         d="M 698.7446,323.0283 L 704.7446,320.0283 L 710.7446,323.0283 L 704.7446,326.0283 L 698.7446,323.0283" />
      <path
         id="path2592"
         style="fill:#cdcdcd;fill-opacity:1;fill-rule:evenodd;stroke:none"
         d="M 834.6446,369.9033 L 840.6446,366.9033 L 846.6446,369.9033 L 840.6446,372.9033 L 834.6446,369.9033" />
      <path
         id="path2594"
         style="fill:#cdcdcd;fill-opacity:1;fill-rule:evenodd;stroke:none"
         d="M 698.7446,416.7783 L 704.7446,413.7783 L 710.7446,416.7783 L 704.7446,419.7783 L 698.7446,416.7783" />
      <path
         id="path2596"
         style="fill:none;stroke:#000000;stroke-width:3.75;stroke-linecap:round;stroke-linejoin:round;stroke-miterlimit:10;stroke-dasharray:none;stroke-opacity:1"
         d="M 183.6446,285.5283 L 183.6446,454.2783" />
      <path
         id="path2598"
         style="fill:none;stroke:#000000;stroke-width:1.27499998;stroke-linecap:round;stroke-linejoin:round;stroke-miterlimit:10;stroke-dasharray:none;stroke-opacity:1"
         d="M 228.9446,285.5283 L 228.9446,454.2783 M 274.2446,285.5283 L 274.2446,454.2783 M 319.6196,285.5283 L 319.6196,454.2783 M 364.9196,285.5283 L 364.9196,454.2783 M 410.2196,285.5283 L 410.2196,454.2783 M 455.5196,285.5283 L 455.5196,454.2783 M 500.8196,285.5283 L 500.8196,454.2783 M 546.1196,285.5283 L 546.1196,454.2783 M 591.4946,285.5283 L 591.4946,454.2783 M 636.7946,285.5283 L 636.7946,454.2783 M 682.0946,285.5283 L 682.0946,454.2783 M 727.3946,285.5283 L 727.3946,454.2783 M 772.6946,285.5283 L 772.6946,454.2783 M 817.9946,285.5283 L 817.9946,454.2783 M 863.3696,285.5283 L 863.3696,454.2783" />
      <path
         id="path2600"
         style="fill:#000000;fill-opacity:1;fill-rule:nonzero;stroke:none"
         d="M 181.3196,462.2283 C 181.3196,461.4033 181.3946,460.7283 181.5446,460.2033 C 181.6946,459.6783 181.9196,459.2283 182.2946,459.0033 C 182.6696,458.7033 183.1196,458.5533 183.6446,458.5533 C 184.0196,458.5533 184.3196,458.6283 184.6196,458.7783 C 184.9196,458.9283 185.1446,459.1533 185.3696,459.4533 C 185.5946,459.7533 185.7446,460.1283 185.8196,460.5033 C 185.8946,460.9533 185.9696,461.5533 185.9696,462.2283 C 185.9696,463.0533 185.8946,463.7283 185.6696,464.2533 C 185.5196,464.7783 185.2946,465.1533 184.9196,465.4533 C 184.5446,465.7533 184.1696,465.9033 183.6446,465.9033 C 182.9696,465.9033 182.3696,465.6783 181.9946,465.1533 C 181.5446,464.5533 181.3196,463.5783 181.3196,462.2283 z M 182.2196,462.2283 C 182.2196,463.3533 182.3696,464.1783 182.5946,464.5533 C 182.8946,464.9283 183.2696,465.1533 183.6446,465.1533 C 184.0196,465.1533 184.3946,464.9283 184.6196,464.5533 C 184.9196,464.1783 185.0696,463.3533 185.0696,462.2283 C 185.0696,461.0283 184.9196,460.2783 184.6196,459.9033 C 184.3946,459.5283 184.0196,459.3033 183.6446,459.3033 C 183.2696,459.3033 182.8946,459.4533 182.6696,459.8283 C 182.3696,460.2033 182.2196,461.0283 182.2196,462.2283" />
      <path
         id="path2602"
         style="fill:#000000;fill-opacity:1;fill-rule:nonzero;stroke:none"
         d="M 229.9196,465.7533 L 229.0196,465.7533 L 229.0196,460.1283 C 228.7946,460.3533 228.5696,460.5033 228.1946,460.7283 C 227.8196,460.9533 227.5196,461.1033 227.2946,461.1783 L 227.2946,460.3533 C 227.7446,460.1283 228.1946,459.9033 228.5696,459.5283 C 228.9446,459.1533 229.1696,458.8533 229.3196,458.5533 L 229.9196,458.5533 L 229.9196,465.7533" />
      <path
         id="path2604"
         style="fill:#000000;fill-opacity:1;fill-rule:nonzero;stroke:none"
         d="M 276.5696,464.9283 L 276.5696,465.7533 L 271.8446,465.7533 L 271.9196,465.1533 C 272.0696,464.7783 272.2946,464.4783 272.5196,464.1783 C 272.7446,463.8783 273.1946,463.5033 273.7196,463.1283 C 274.4696,462.4533 274.9946,462.0033 275.2196,461.6283 C 275.5196,461.2533 275.6696,460.8783 275.6696,460.5033 C 275.6696,460.1283 275.5196,459.9033 275.2946,459.6783 C 275.0696,459.4533 274.6946,459.3033 274.3196,459.3033 C 273.9446,459.3033 273.5696,459.4533 273.2696,459.6783 C 273.0446,459.9033 272.8946,460.2783 272.8946,460.7283 L 271.9946,460.6533 C 272.0696,459.9783 272.3696,459.4533 272.7446,459.0783 C 273.1196,458.7033 273.6446,458.5533 274.3196,458.5533 C 274.9946,458.5533 275.5946,458.7783 275.9696,459.1533 C 276.3446,459.5283 276.5696,459.9783 276.5696,460.5783 C 276.5696,460.8033 276.4946,461.1033 276.4196,461.4033 L 275.8196,462.3033 C 275.5196,462.6033 275.0696,462.9783 274.4696,463.5033 L 273.4196,464.4033 L 273.0446,464.9283 L 276.5696,464.9283" />
      <path
         id="path2606"
         style="fill:#000000;fill-opacity:1;fill-rule:nonzero;stroke:none"
         d="M 317.2196,463.8783 L 318.0446,463.7283 C 318.1196,464.2533 318.3446,464.6283 318.5696,464.8533 C 318.7946,465.0783 319.0946,465.1533 319.4696,465.1533 C 319.8446,465.1533 320.2196,465.0033 320.5196,464.7033 C 320.8196,464.4783 320.9696,464.1033 320.9696,463.6533 C 320.9696,463.2783 320.8196,462.9033 320.5196,462.6783 C 320.2946,462.4533 319.9196,462.3033 319.5446,462.3033 L 318.9446,462.3783 L 319.0196,461.6283 L 319.1696,461.6283 C 319.5446,461.6283 319.8446,461.5533 320.1446,461.3283 C 320.4446,461.1033 320.5946,460.8033 320.5946,460.4283 C 320.5946,460.0533 320.5196,459.8283 320.2946,459.6033 C 320.0696,459.3783 319.8446,459.3033 319.4696,459.3033 C 319.0946,459.3033 318.7946,459.3783 318.5696,459.6033 C 318.3446,459.8283 318.1946,460.1283 318.1196,460.5783 L 317.2946,460.4283 C 317.3696,459.8283 317.6696,459.3783 318.0446,459.0783 C 318.4196,458.7033 318.8696,458.5533 319.4696,458.5533 C 319.8446,458.5533 320.1446,458.6283 320.5196,458.8533 C 320.8946,459.0033 321.1196,459.2283 321.2696,459.5283 C 321.4196,459.8283 321.4946,460.1283 321.4946,460.4283 C 321.4946,460.7283 321.4196,461.0283 321.2696,461.2533 C 321.1196,461.4783 320.8946,461.7033 320.5196,461.8533 C 320.9696,461.9283 321.2696,462.1533 321.4946,462.5283 C 321.7196,462.8283 321.8696,463.2033 321.8696,463.6533 C 321.8696,464.2533 321.6446,464.7783 321.1946,465.2283 C 320.7446,465.6783 320.1446,465.9033 319.4696,465.9033 C 318.7946,465.9033 318.2696,465.6783 317.8946,465.3033 C 317.5196,464.9283 317.2946,464.4783 317.2196,463.8783" />
      <path
         id="path2608"
         style="fill:#000000;fill-opacity:1;fill-rule:nonzero;stroke:none"
         d="M 365.3696,465.7533 L 365.3696,464.0283 L 362.2946,464.0283 L 362.2946,463.2033 L 365.5196,458.6283 L 366.2696,458.6283 L 366.2696,463.2033 L 367.2446,463.2033 L 367.2446,464.0283 L 366.2696,464.0283 L 366.2696,465.7533 L 365.3696,465.7533 z M 365.3696,463.2033 L 365.3696,459.9783 L 363.1196,463.2033 L 365.3696,463.2033" />
      <path
         id="path2610"
         style="fill:#000000;fill-opacity:1;fill-rule:nonzero;stroke:none"
         d="M 407.8946,463.8783 L 408.7946,463.8033 C 408.8696,464.2533 409.0196,464.6283 409.2446,464.8533 C 409.4696,465.0783 409.7696,465.1533 410.1446,465.1533 C 410.5946,465.1533 410.9696,465.0033 411.2696,464.7033 C 411.4946,464.3283 411.6446,463.9533 411.6446,463.4283 C 411.6446,462.9033 411.4946,462.5283 411.2696,462.2283 C 410.9696,461.9283 410.5946,461.7783 410.1446,461.7783 C 409.8446,461.7783 409.6196,461.8533 409.3946,462.0033 C 409.1696,462.0783 408.9446,462.2283 408.8696,462.4533 L 408.0446,462.3783 L 408.7196,458.7033 L 412.2446,458.7033 L 412.2446,459.5283 L 409.3946,459.5283 L 409.0196,461.4783 C 409.4696,461.1783 409.9196,461.0283 410.3696,461.0283 C 411.0446,461.0283 411.5696,461.2533 411.9446,461.6283 C 412.3946,462.0783 412.6196,462.6783 412.6196,463.3533 C 412.6196,464.0283 412.3946,464.5533 412.0196,465.0033 C 411.5696,465.6033 410.9696,465.9033 410.1446,465.9033 C 409.4696,465.9033 408.9446,465.6783 408.5696,465.3033 C 408.1946,464.9283 407.9696,464.4783 407.8946,463.8783" />
      <path
         id="path2612"
         style="fill:#000000;fill-opacity:1;fill-rule:nonzero;stroke:none"
         d="M 457.6946,460.3533 L 456.8696,460.4283 C 456.7946,460.0533 456.6446,459.8283 456.4946,459.6783 C 456.2696,459.4533 456.0446,459.3033 455.6696,459.3033 C 455.3696,459.3033 455.1446,459.3783 454.9196,459.5283 C 454.6196,459.7533 454.3946,460.0533 454.2446,460.4283 C 454.0946,460.8033 454.0196,461.3283 454.0196,462.0783 C 454.2446,461.7033 454.4696,461.4783 454.7696,461.3283 C 455.0696,461.1783 455.3696,461.1033 455.7446,461.1033 C 456.3446,461.1033 456.8696,461.3283 457.2446,461.7783 C 457.6196,462.1533 457.8446,462.7533 457.8446,463.4283 C 457.8446,463.8783 457.7696,464.3283 457.5446,464.7033 C 457.3196,465.0783 457.0946,465.3783 456.7946,465.6033 C 456.4196,465.8283 456.0446,465.9033 455.5946,465.9033 C 454.9196,465.9033 454.3196,465.6033 453.7946,465.0783 C 453.3446,464.5533 453.1196,463.6533 453.1196,462.3783 C 453.1196,461.0283 453.3446,460.0533 453.8696,459.3783 C 454.3196,458.8533 454.9196,458.5533 455.6696,458.5533 C 456.2696,458.5533 456.7196,458.7033 457.0946,459.0783 C 457.4696,459.3783 457.6196,459.8283 457.6946,460.3533 z M 454.0946,463.4283 L 454.3196,464.3283 L 454.8446,464.9283 L 455.5946,465.1533 C 455.9696,465.1533 456.2696,465.0033 456.5696,464.7033 C 456.7946,464.4033 456.9446,464.0283 456.9446,463.5033 C 456.9446,462.9783 456.7946,462.6033 456.5696,462.3033 C 456.3446,462.0033 455.9696,461.8533 455.5196,461.8533 C 455.1446,461.8533 454.8446,462.0033 454.5446,462.3033 C 454.2446,462.6033 454.0946,462.9783 454.0946,463.4283" />
      <path
         id="path2614"
         style="fill:#000000;fill-opacity:1;fill-rule:nonzero;stroke:none"
         d="M 498.4946,459.5283 L 498.4946,458.7033 L 503.1446,458.7033 L 503.1446,459.3783 C 502.6946,459.9033 502.2446,460.5033 501.7946,461.3283 C 501.3446,462.1533 500.9696,462.9783 500.7446,463.8033 C 500.5946,464.4033 500.5196,465.0783 500.4446,465.7533 L 499.5446,465.7533 C 499.5446,465.2283 499.6196,464.5533 499.8446,463.7283 C 500.0696,462.9033 500.3696,462.1533 500.7446,461.4033 C 501.1196,460.6533 501.5696,460.0533 502.0196,459.5283 L 498.4946,459.5283" />
      <path
         id="path2616"
         style="fill:#000000;fill-opacity:1;fill-rule:nonzero;stroke:none"
         d="M 545.2196,461.8533 C 544.8446,461.7783 544.5446,461.5533 544.3946,461.3283 C 544.1696,461.1033 544.0946,460.8033 544.0946,460.4283 C 544.0946,459.9033 544.3196,459.4533 544.6946,459.0783 C 545.0696,458.7033 545.5196,458.5533 546.1946,458.5533 C 546.7946,458.5533 547.3196,458.7033 547.6946,459.0783 C 548.0696,459.4533 548.2196,459.9033 548.2196,460.4283 C 548.2196,460.8033 548.1446,461.1033 547.9946,461.3283 C 547.7696,461.5533 547.5446,461.7783 547.1696,461.8533 C 547.6196,462.0033 547.9946,462.2283 548.2196,462.6033 C 548.4446,462.9033 548.5196,463.2783 548.5196,463.7283 C 548.5196,464.3283 548.2946,464.8533 547.9196,465.2283 C 547.4696,465.6783 546.8696,465.9033 546.1946,465.9033 C 545.5196,465.9033 544.9196,465.6783 544.4696,465.2283 C 544.0196,464.8533 543.7946,464.3283 543.7946,463.6533 C 543.7946,463.2033 543.9446,462.8283 544.1696,462.5283 C 544.3946,462.2283 544.7696,462.0033 545.2196,461.8533 z M 544.9946,460.3533 C 544.9946,460.7283 545.1446,460.9533 545.3696,461.1783 C 545.5946,461.4033 545.8196,461.5533 546.1946,461.5533 C 546.5696,461.5533 546.7946,461.4783 547.0196,461.2533 C 547.2446,461.0283 547.3196,460.7283 547.3196,460.4283 C 547.3196,460.1283 547.2446,459.8283 547.0196,459.6033 C 546.7946,459.3783 546.4946,459.3033 546.1946,459.3033 C 545.8196,459.3033 545.5946,459.3783 545.3696,459.6033 C 545.1446,459.8283 544.9946,460.0533 544.9946,460.3533 z M 544.6946,463.7283 C 544.6946,463.9533 544.7696,464.1783 544.9196,464.4033 C 544.9946,464.6283 545.2196,464.8533 545.4446,464.9283 L 546.1946,465.1533 C 546.5696,465.1533 546.9446,465.0033 547.2446,464.7783 C 547.4696,464.4783 547.6196,464.1033 547.6196,463.7283 C 547.6196,463.2783 547.4696,462.9033 547.2446,462.6783 C 546.9446,462.3783 546.5696,462.2283 546.1946,462.2283 C 545.7446,462.2283 545.3696,462.3783 545.1446,462.6783 C 544.8446,462.9033 544.6946,463.2783 544.6946,463.7283" />
      <path
         id="path2618"
         style="fill:#000000;fill-opacity:1;fill-rule:nonzero;stroke:none"
         d="M 589.1696,464.1033 L 590.0696,464.0283 C 590.1446,464.4033 590.2196,464.7033 590.4446,464.8533 C 590.6696,465.0783 590.8946,465.1533 591.1946,465.1533 C 591.4946,465.1533 591.7196,465.0783 591.9446,465.0033 L 592.4696,464.4783 L 592.7696,463.6533 L 592.9196,462.5283 L 592.9196,462.3783 C 592.6946,462.6783 592.4696,462.9033 592.1696,463.0533 C 591.8696,463.2783 591.5696,463.3533 591.1946,463.3533 C 590.5946,463.3533 590.0696,463.1283 589.6946,462.6783 C 589.3196,462.3033 589.0946,461.7033 589.0946,460.9533 C 589.0946,460.2783 589.3196,459.6783 589.6946,459.2283 C 590.1446,458.7783 590.6696,458.5533 591.3446,458.5533 C 591.7946,458.5533 592.2446,458.7033 592.6196,458.9283 C 592.9946,459.1533 593.2196,459.5283 593.4446,460.0533 C 593.6696,460.5033 593.7446,461.1783 593.7446,462.0033 C 593.7446,462.9783 593.6696,463.7283 593.4446,464.2533 C 593.2196,464.7783 592.9946,465.1533 592.6196,465.4533 C 592.2446,465.7533 591.7196,465.9033 591.1946,465.9033 C 590.6696,465.9033 590.2196,465.7533 589.8446,465.3783 C 589.4696,465.0783 589.2446,464.6283 589.1696,464.1033 z M 592.7696,460.9533 C 592.7696,460.4283 592.6196,460.0533 592.3946,459.7533 C 592.1696,459.4533 591.7946,459.3033 591.4196,459.3033 C 591.0446,459.3033 590.6696,459.4533 590.3696,459.7533 C 590.1446,460.1283 589.9946,460.5033 589.9946,461.0283 C 589.9946,461.4783 590.1446,461.8533 590.3696,462.1533 C 590.6696,462.3783 591.0446,462.5283 591.4196,462.5283 C 591.7946,462.5283 592.1696,462.3783 592.3946,462.1533 C 592.6196,461.8533 592.7696,461.4783 592.7696,460.9533" />
      <path
         id="path2620"
         style="fill:#000000;fill-opacity:1;fill-rule:nonzero;stroke:none"
         d="M 634.9946,465.7533 L 634.0946,465.7533 L 634.0946,460.1283 C 633.8696,460.3533 633.6446,460.5033 633.2696,460.7283 C 632.8946,460.9533 632.5946,461.1033 632.3696,461.1783 L 632.3696,460.3533 C 632.8196,460.1283 633.2696,459.9033 633.6446,459.5283 C 634.0196,459.1533 634.2446,458.8533 634.3946,458.5533 L 634.9946,458.5533 L 634.9946,465.7533 z M 637.2446,462.2283 C 637.2446,461.4033 637.3196,460.7283 637.4696,460.2033 C 637.6196,459.6783 637.8446,459.2283 638.2196,459.0033 C 638.5946,458.7033 639.0446,458.5533 639.5696,458.5533 C 639.9446,458.5533 640.2446,458.6283 640.5446,458.7783 C 640.8446,458.9283 641.0696,459.1533 641.2946,459.4533 C 641.5196,459.7533 641.6696,460.1283 641.7446,460.5033 C 641.8196,460.9533 641.8946,461.5533 641.8946,462.2283 C 641.8946,463.0533 641.8196,463.7283 641.5946,464.2533 C 641.4446,464.7783 641.2196,465.1533 640.8446,465.4533 C 640.4696,465.7533 640.0946,465.9033 639.5696,465.9033 C 638.8946,465.9033 638.2946,465.6783 637.9196,465.1533 C 637.4696,464.5533 637.2446,463.5783 637.2446,462.2283 z M 638.1446,462.2283 C 638.1446,463.3533 638.2946,464.1783 638.5196,464.5533 C 638.8196,464.9283 639.1946,465.1533 639.5696,465.1533 C 639.9446,465.1533 640.3196,464.9283 640.5446,464.5533 C 640.8446,464.1783 640.9946,463.3533 640.9946,462.2283 C 640.9946,461.0283 640.8446,460.2783 640.5446,459.9033 C 640.3196,459.5283 639.9446,459.3033 639.5696,459.3033 C 639.1946,459.3033 638.8196,459.4533 638.5946,459.8283 C 638.2946,460.2033 638.1446,461.0283 638.1446,462.2283" />
      <path
         id="path2622"
         style="fill:#000000;fill-opacity:1;fill-rule:nonzero;stroke:none"
         d="M 680.2946,465.7533 L 679.3946,465.7533 L 679.3946,460.1283 C 679.1696,460.3533 678.9446,460.5033 678.5696,460.7283 C 678.1946,460.9533 677.8946,461.1033 677.6696,461.1783 L 677.6696,460.3533 C 678.1196,460.1283 678.5696,459.9033 678.9446,459.5283 C 679.3196,459.1533 679.5446,458.8533 679.6946,458.5533 L 680.2946,458.5533 L 680.2946,465.7533 z M 685.8446,465.7533 L 684.9446,465.7533 L 684.9446,460.1283 C 684.7196,460.3533 684.4946,460.5033 684.1196,460.7283 C 683.7446,460.9533 683.4446,461.1033 683.2196,461.1783 L 683.2196,460.3533 C 683.6696,460.1283 684.1196,459.9033 684.4946,459.5283 C 684.8696,459.1533 685.0946,458.8533 685.2446,458.5533 L 685.8446,458.5533 L 685.8446,465.7533" />
      <path
         id="path2624"
         style="fill:#000000;fill-opacity:1;fill-rule:nonzero;stroke:none"
         d="M 725.5946,465.7533 L 724.6946,465.7533 L 724.6946,460.1283 C 724.4696,460.3533 724.2446,460.5033 723.8696,460.7283 C 723.4946,460.9533 723.1946,461.1033 722.9696,461.1783 L 722.9696,460.3533 C 723.4196,460.1283 723.8696,459.9033 724.2446,459.5283 C 724.6196,459.1533 724.8446,458.8533 724.9946,458.5533 L 725.5946,458.5533 L 725.5946,465.7533 z M 732.4196,464.9283 L 732.4196,465.7533 L 727.6946,465.7533 L 727.7696,465.1533 C 727.9196,464.7783 728.1446,464.4783 728.3696,464.1783 C 728.5946,463.8783 729.0446,463.5033 729.5696,463.1283 C 730.3196,462.4533 730.8446,462.0033 731.0696,461.6283 C 731.3696,461.2533 731.5196,460.8783 731.5196,460.5033 C 731.5196,460.1283 731.3696,459.9033 731.1446,459.6783 C 730.9196,459.4533 730.5446,459.3033 730.1696,459.3033 C 729.7946,459.3033 729.4196,459.4533 729.1196,459.6783 C 728.8946,459.9033 728.7446,460.2783 728.7446,460.7283 L 727.8446,460.6533 C 727.9196,459.9783 728.2196,459.4533 728.5946,459.0783 C 728.9696,458.7033 729.4946,458.5533 730.1696,458.5533 C 730.8446,458.5533 731.4446,458.7783 731.8196,459.1533 C 732.1946,459.5283 732.4196,459.9783 732.4196,460.5783 C 732.4196,460.8033 732.3446,461.1033 732.2696,461.4033 L 731.6696,462.3033 C 731.3696,462.6033 730.9196,462.9783 730.3196,463.5033 L 729.2696,464.4033 L 728.8946,464.9283 L 732.4196,464.9283" />
      <path
         id="path2626"
         style="fill:#000000;fill-opacity:1;fill-rule:nonzero;stroke:none"
         d="M 770.8946,465.7533 L 769.9946,465.7533 L 769.9946,460.1283 C 769.7696,460.3533 769.5446,460.5033 769.1696,460.7283 C 768.7946,460.9533 768.4946,461.1033 768.2696,461.1783 L 768.2696,460.3533 C 768.7196,460.1283 769.1696,459.9033 769.5446,459.5283 C 769.9196,459.1533 770.1446,458.8533 770.2946,458.5533 L 770.8946,458.5533 L 770.8946,465.7533 z M 773.1446,463.8783 L 773.9696,463.7283 C 774.0446,464.2533 774.2696,464.6283 774.4946,464.8533 C 774.7196,465.0783 775.0196,465.1533 775.3946,465.1533 C 775.7696,465.1533 776.1446,465.0033 776.4446,464.7033 C 776.7446,464.4783 776.8946,464.1033 776.8946,463.6533 C 776.8946,463.2783 776.7446,462.9033 776.4446,462.6783 C 776.2196,462.4533 775.8446,462.3033 775.4696,462.3033 L 774.8696,462.3783 L 774.9446,461.6283 L 775.0946,461.6283 C 775.4696,461.6283 775.7696,461.5533 776.0696,461.3283 C 776.3696,461.1033 776.5196,460.8033 776.5196,460.4283 C 776.5196,460.0533 776.4446,459.8283 776.2196,459.6033 C 775.9946,459.3783 775.7696,459.3033 775.3946,459.3033 C 775.0196,459.3033 774.7196,459.3783 774.4946,459.6033 C 774.2696,459.8283 774.1196,460.1283 774.0446,460.5783 L 773.2196,460.4283 C 773.2946,459.8283 773.5946,459.3783 773.9696,459.0783 C 774.3446,458.7033 774.7946,458.5533 775.3946,458.5533 C 775.7696,458.5533 776.0696,458.6283 776.4446,458.8533 C 776.8196,459.0033 777.0446,459.2283 777.1946,459.5283 C 777.3446,459.8283 777.4196,460.1283 777.4196,460.4283 C 777.4196,460.7283 777.3446,461.0283 777.1946,461.2533 C 777.0446,461.4783 776.8196,461.7033 776.4446,461.8533 C 776.8946,461.9283 777.1946,462.1533 777.4196,462.5283 C 777.6446,462.8283 777.7946,463.2033 777.7946,463.6533 C 777.7946,464.2533 777.5696,464.7783 777.1196,465.2283 C 776.6696,465.6783 776.0696,465.9033 775.3946,465.9033 C 774.7196,465.9033 774.1946,465.6783 773.8196,465.3033 C 773.4446,464.9283 773.2196,464.4783 773.1446,463.8783" />
      <path
         id="path2628"
         style="fill:#000000;fill-opacity:1;fill-rule:nonzero;stroke:none"
         d="M 816.2696,465.7533 L 815.3696,465.7533 L 815.3696,460.1283 C 815.1446,460.3533 814.9196,460.5033 814.5446,460.7283 C 814.1696,460.9533 813.8696,461.1033 813.6446,461.1783 L 813.6446,460.3533 C 814.0946,460.1283 814.5446,459.9033 814.9196,459.5283 C 815.2946,459.1533 815.5196,458.8533 815.6696,458.5533 L 816.2696,458.5533 L 816.2696,465.7533 z M 821.2946,465.7533 L 821.2946,464.0283 L 818.2196,464.0283 L 818.2196,463.2033 L 821.4446,458.6283 L 822.1946,458.6283 L 822.1946,463.2033 L 823.1696,463.2033 L 823.1696,464.0283 L 822.1946,464.0283 L 822.1946,465.7533 L 821.2946,465.7533 z M 821.2946,463.2033 L 821.2946,459.9783 L 819.0446,463.2033 L 821.2946,463.2033" />
      <path
         id="path2630"
         style="fill:#000000;fill-opacity:1;fill-rule:nonzero;stroke:none"
         d="M 861.4946,465.7533 L 860.5946,465.7533 L 860.5946,460.1283 C 860.3696,460.3533 860.1446,460.5033 859.7696,460.7283 C 859.3946,460.9533 859.0946,461.1033 858.8696,461.1783 L 858.8696,460.3533 C 859.3196,460.1283 859.7696,459.9033 860.1446,459.5283 C 860.5196,459.1533 860.7446,458.8533 860.8946,458.5533 L 861.4946,458.5533 L 861.4946,465.7533 z M 863.7446,463.8783 L 864.6446,463.8033 C 864.7196,464.2533 864.8696,464.6283 865.0946,464.8533 C 865.3196,465.0783 865.6196,465.1533 865.9946,465.1533 C 866.4446,465.1533 866.8196,465.0033 867.1196,464.7033 C 867.3446,464.3283 867.4946,463.9533 867.4946,463.4283 C 867.4946,462.9033 867.3446,462.5283 867.1196,462.2283 C 866.8196,461.9283 866.4446,461.7783 865.9946,461.7783 C 865.6946,461.7783 865.4696,461.8533 865.2446,462.0033 C 865.0196,462.0783 864.7946,462.2283 864.7196,462.4533 L 863.8946,462.3783 L 864.5696,458.7033 L 868.0946,458.7033 L 868.0946,459.5283 L 865.2446,459.5283 L 864.8696,461.4783 C 865.3196,461.1783 865.7696,461.0283 866.2196,461.0283 C 866.8946,461.0283 867.4196,461.2533 867.7946,461.6283 C 868.2446,462.0783 868.4696,462.6783 868.4696,463.3533 C 868.4696,464.0283 868.2446,464.5533 867.8696,465.0033 C 867.4196,465.6033 866.8196,465.9033 865.9946,465.9033 C 865.3196,465.9033 864.7946,465.6783 864.4196,465.3033 C 864.0446,464.9283 863.8196,464.4783 863.7446,463.8783" />
      <path
         id="path2632"
         style="fill:none;stroke:#000000;stroke-width:0.075;stroke-linecap:round;stroke-linejoin:round;stroke-miterlimit:10;stroke-dasharray:none;stroke-opacity:1"
         d="M 138.3446,299.5533 L 863.3696,299.5533" />
      <path
         id="path2634"
         style="fill:none;stroke:#000000;stroke-width:1.27499998;stroke-linecap:round;stroke-linejoin:round;stroke-miterlimit:10;stroke-dasharray:none;stroke-opacity:1"
         d="M 138.3446,346.4283 L 863.3696,346.4283" />
      <path
         id="path2636"
         style="fill:none;stroke:#000000;stroke-width:2.4749999;stroke-linecap:round;stroke-linejoin:round;stroke-miterlimit:10;stroke-dasharray:none;stroke-opacity:1"
         d="M 138.3446,393.3033 L 863.3696,393.3033 M 138.3446,440.1783 L 863.3696,440.1783" />
    </g>
    <g
       id="g2761"
       transform="translate(23.392741,-9.668559)">
      <path
         id="path2763"
         style="fill:#cdcdcd;fill-opacity:1;fill-rule:evenodd;stroke:none"
         d="M 290.8946,369.9033 L 296.8946,366.9033 L 302.8946,369.9033 L 296.8946,372.9033 L 290.8946,369.9033" />
      <path
         id="path2765"
         style="fill:#cdcdcd;fill-opacity:1;fill-rule:evenodd;stroke:none"
         d="M 381.4946,369.9033 L 387.4946,366.9033 L 393.4946,369.9033 L 387.4946,372.9033 L 381.4946,369.9033" />
      <path
         id="path2767"
         style="fill:#cdcdcd;fill-opacity:1;fill-rule:evenodd;stroke:none"
         d="M 472.1696,369.9033 L 478.1696,366.9033 L 484.1696,369.9033 L 478.1696,372.9033 L 472.1696,369.9033" />
      <path
         id="path2769"
         style="fill:#cdcdcd;fill-opacity:1;fill-rule:evenodd;stroke:none"
         d="M 562.7696,369.9033 L 568.7696,366.9033 L 574.7696,369.9033 L 568.7696,372.9033 L 562.7696,369.9033" />
      <path
         id="path2771"
         style="fill:#cdcdcd;fill-opacity:1;fill-rule:evenodd;stroke:none"
         d="M 698.7446,323.0283 L 704.7446,320.0283 L 710.7446,323.0283 L 704.7446,326.0283 L 698.7446,323.0283" />
      <path
         id="path2773"
         style="fill:#cdcdcd;fill-opacity:1;fill-rule:evenodd;stroke:none"
         d="M 834.6446,369.9033 L 840.6446,366.9033 L 846.6446,369.9033 L 840.6446,372.9033 L 834.6446,369.9033" />
      <path
         id="path2775"
         style="fill:#cdcdcd;fill-opacity:1;fill-rule:evenodd;stroke:none"
         d="M 698.7446,416.7783 L 704.7446,413.7783 L 710.7446,416.7783 L 704.7446,419.7783 L 698.7446,416.7783" />
      <path
         id="path2777"
         style="fill:none;stroke:#000000;stroke-width:3.75;stroke-linecap:round;stroke-linejoin:round;stroke-miterlimit:10;stroke-dasharray:none;stroke-opacity:1"
         d="M 183.6446,285.5283 L 183.6446,454.2783" />
      <path
         id="path2779"
         style="fill:none;stroke:#000000;stroke-width:1.27499998;stroke-linecap:round;stroke-linejoin:round;stroke-miterlimit:10;stroke-dasharray:none;stroke-opacity:1"
         d="M 228.9446,285.5283 L 228.9446,454.2783 M 274.2446,285.5283 L 274.2446,454.2783 M 319.6196,285.5283 L 319.6196,454.2783 M 364.9196,285.5283 L 364.9196,454.2783 M 410.2196,285.5283 L 410.2196,454.2783 M 455.5196,285.5283 L 455.5196,454.2783 M 500.8196,285.5283 L 500.8196,454.2783 M 546.1196,285.5283 L 546.1196,454.2783 M 591.4946,285.5283 L 591.4946,454.2783 M 636.7946,285.5283 L 636.7946,454.2783 M 682.0946,285.5283 L 682.0946,454.2783 M 727.3946,285.5283 L 727.3946,454.2783 M 772.6946,285.5283 L 772.6946,454.2783 M 817.9946,285.5283 L 817.9946,454.2783 M 863.3696,285.5283 L 863.3696,454.2783" />
      <path
         id="path2781"
         style="fill:#000000;fill-opacity:1;fill-rule:nonzero;stroke:none"
         d="M 181.3196,462.2283 C 181.3196,461.4033 181.3946,460.7283 181.5446,460.2033 C 181.6946,459.6783 181.9196,459.2283 182.2946,459.0033 C 182.6696,458.7033 183.1196,458.5533 183.6446,458.5533 C 184.0196,458.5533 184.3196,458.6283 184.6196,458.7783 C 184.9196,458.9283 185.1446,459.1533 185.3696,459.4533 C 185.5946,459.7533 185.7446,460.1283 185.8196,460.5033 C 185.8946,460.9533 185.9696,461.5533 185.9696,462.2283 C 185.9696,463.0533 185.8946,463.7283 185.6696,464.2533 C 185.5196,464.7783 185.2946,465.1533 184.9196,465.4533 C 184.5446,465.7533 184.1696,465.9033 183.6446,465.9033 C 182.9696,465.9033 182.3696,465.6783 181.9946,465.1533 C 181.5446,464.5533 181.3196,463.5783 181.3196,462.2283 z M 182.2196,462.2283 C 182.2196,463.3533 182.3696,464.1783 182.5946,464.5533 C 182.8946,464.9283 183.2696,465.1533 183.6446,465.1533 C 184.0196,465.1533 184.3946,464.9283 184.6196,464.5533 C 184.9196,464.1783 185.0696,463.3533 185.0696,462.2283 C 185.0696,461.0283 184.9196,460.2783 184.6196,459.9033 C 184.3946,459.5283 184.0196,459.3033 183.6446,459.3033 C 183.2696,459.3033 182.8946,459.4533 182.6696,459.8283 C 182.3696,460.2033 182.2196,461.0283 182.2196,462.2283" />
      <path
         id="path2783"
         style="fill:#000000;fill-opacity:1;fill-rule:nonzero;stroke:none"
         d="M 229.9196,465.7533 L 229.0196,465.7533 L 229.0196,460.1283 C 228.7946,460.3533 228.5696,460.5033 228.1946,460.7283 C 227.8196,460.9533 227.5196,461.1033 227.2946,461.1783 L 227.2946,460.3533 C 227.7446,460.1283 228.1946,459.9033 228.5696,459.5283 C 228.9446,459.1533 229.1696,458.8533 229.3196,458.5533 L 229.9196,458.5533 L 229.9196,465.7533" />
      <path
         id="path2785"
         style="fill:#000000;fill-opacity:1;fill-rule:nonzero;stroke:none"
         d="M 276.5696,464.9283 L 276.5696,465.7533 L 271.8446,465.7533 L 271.9196,465.1533 C 272.0696,464.7783 272.2946,464.4783 272.5196,464.1783 C 272.7446,463.8783 273.1946,463.5033 273.7196,463.1283 C 274.4696,462.4533 274.9946,462.0033 275.2196,461.6283 C 275.5196,461.2533 275.6696,460.8783 275.6696,460.5033 C 275.6696,460.1283 275.5196,459.9033 275.2946,459.6783 C 275.0696,459.4533 274.6946,459.3033 274.3196,459.3033 C 273.9446,459.3033 273.5696,459.4533 273.2696,459.6783 C 273.0446,459.9033 272.8946,460.2783 272.8946,460.7283 L 271.9946,460.6533 C 272.0696,459.9783 272.3696,459.4533 272.7446,459.0783 C 273.1196,458.7033 273.6446,458.5533 274.3196,458.5533 C 274.9946,458.5533 275.5946,458.7783 275.9696,459.1533 C 276.3446,459.5283 276.5696,459.9783 276.5696,460.5783 C 276.5696,460.8033 276.4946,461.1033 276.4196,461.4033 L 275.8196,462.3033 C 275.5196,462.6033 275.0696,462.9783 274.4696,463.5033 L 273.4196,464.4033 L 273.0446,464.9283 L 276.5696,464.9283" />
      <path
         id="path2787"
         style="fill:#000000;fill-opacity:1;fill-rule:nonzero;stroke:none"
         d="M 317.2196,463.8783 L 318.0446,463.7283 C 318.1196,464.2533 318.3446,464.6283 318.5696,464.8533 C 318.7946,465.0783 319.0946,465.1533 319.4696,465.1533 C 319.8446,465.1533 320.2196,465.0033 320.5196,464.7033 C 320.8196,464.4783 320.9696,464.1033 320.9696,463.6533 C 320.9696,463.2783 320.8196,462.9033 320.5196,462.6783 C 320.2946,462.4533 319.9196,462.3033 319.5446,462.3033 L 318.9446,462.3783 L 319.0196,461.6283 L 319.1696,461.6283 C 319.5446,461.6283 319.8446,461.5533 320.1446,461.3283 C 320.4446,461.1033 320.5946,460.8033 320.5946,460.4283 C 320.5946,460.0533 320.5196,459.8283 320.2946,459.6033 C 320.0696,459.3783 319.8446,459.3033 319.4696,459.3033 C 319.0946,459.3033 318.7946,459.3783 318.5696,459.6033 C 318.3446,459.8283 318.1946,460.1283 318.1196,460.5783 L 317.2946,460.4283 C 317.3696,459.8283 317.6696,459.3783 318.0446,459.0783 C 318.4196,458.7033 318.8696,458.5533 319.4696,458.5533 C 319.8446,458.5533 320.1446,458.6283 320.5196,458.8533 C 320.8946,459.0033 321.1196,459.2283 321.2696,459.5283 C 321.4196,459.8283 321.4946,460.1283 321.4946,460.4283 C 321.4946,460.7283 321.4196,461.0283 321.2696,461.2533 C 321.1196,461.4783 320.8946,461.7033 320.5196,461.8533 C 320.9696,461.9283 321.2696,462.1533 321.4946,462.5283 C 321.7196,462.8283 321.8696,463.2033 321.8696,463.6533 C 321.8696,464.2533 321.6446,464.7783 321.1946,465.2283 C 320.7446,465.6783 320.1446,465.9033 319.4696,465.9033 C 318.7946,465.9033 318.2696,465.6783 317.8946,465.3033 C 317.5196,464.9283 317.2946,464.4783 317.2196,463.8783" />
      <path
         id="path2789"
         style="fill:#000000;fill-opacity:1;fill-rule:nonzero;stroke:none"
         d="M 365.3696,465.7533 L 365.3696,464.0283 L 362.2946,464.0283 L 362.2946,463.2033 L 365.5196,458.6283 L 366.2696,458.6283 L 366.2696,463.2033 L 367.2446,463.2033 L 367.2446,464.0283 L 366.2696,464.0283 L 366.2696,465.7533 L 365.3696,465.7533 z M 365.3696,463.2033 L 365.3696,459.9783 L 363.1196,463.2033 L 365.3696,463.2033" />
      <path
         id="path2791"
         style="fill:#000000;fill-opacity:1;fill-rule:nonzero;stroke:none"
         d="M 407.8946,463.8783 L 408.7946,463.8033 C 408.8696,464.2533 409.0196,464.6283 409.2446,464.8533 C 409.4696,465.0783 409.7696,465.1533 410.1446,465.1533 C 410.5946,465.1533 410.9696,465.0033 411.2696,464.7033 C 411.4946,464.3283 411.6446,463.9533 411.6446,463.4283 C 411.6446,462.9033 411.4946,462.5283 411.2696,462.2283 C 410.9696,461.9283 410.5946,461.7783 410.1446,461.7783 C 409.8446,461.7783 409.6196,461.8533 409.3946,462.0033 C 409.1696,462.0783 408.9446,462.2283 408.8696,462.4533 L 408.0446,462.3783 L 408.7196,458.7033 L 412.2446,458.7033 L 412.2446,459.5283 L 409.3946,459.5283 L 409.0196,461.4783 C 409.4696,461.1783 409.9196,461.0283 410.3696,461.0283 C 411.0446,461.0283 411.5696,461.2533 411.9446,461.6283 C 412.3946,462.0783 412.6196,462.6783 412.6196,463.3533 C 412.6196,464.0283 412.3946,464.5533 412.0196,465.0033 C 411.5696,465.6033 410.9696,465.9033 410.1446,465.9033 C 409.4696,465.9033 408.9446,465.6783 408.5696,465.3033 C 408.1946,464.9283 407.9696,464.4783 407.8946,463.8783" />
      <path
         id="path2793"
         style="fill:#000000;fill-opacity:1;fill-rule:nonzero;stroke:none"
         d="M 457.6946,460.3533 L 456.8696,460.4283 C 456.7946,460.0533 456.6446,459.8283 456.4946,459.6783 C 456.2696,459.4533 456.0446,459.3033 455.6696,459.3033 C 455.3696,459.3033 455.1446,459.3783 454.9196,459.5283 C 454.6196,459.7533 454.3946,460.0533 454.2446,460.4283 C 454.0946,460.8033 454.0196,461.3283 454.0196,462.0783 C 454.2446,461.7033 454.4696,461.4783 454.7696,461.3283 C 455.0696,461.1783 455.3696,461.1033 455.7446,461.1033 C 456.3446,461.1033 456.8696,461.3283 457.2446,461.7783 C 457.6196,462.1533 457.8446,462.7533 457.8446,463.4283 C 457.8446,463.8783 457.7696,464.3283 457.5446,464.7033 C 457.3196,465.0783 457.0946,465.3783 456.7946,465.6033 C 456.4196,465.8283 456.0446,465.9033 455.5946,465.9033 C 454.9196,465.9033 454.3196,465.6033 453.7946,465.0783 C 453.3446,464.5533 453.1196,463.6533 453.1196,462.3783 C 453.1196,461.0283 453.3446,460.0533 453.8696,459.3783 C 454.3196,458.8533 454.9196,458.5533 455.6696,458.5533 C 456.2696,458.5533 456.7196,458.7033 457.0946,459.0783 C 457.4696,459.3783 457.6196,459.8283 457.6946,460.3533 z M 454.0946,463.4283 L 454.3196,464.3283 L 454.8446,464.9283 L 455.5946,465.1533 C 455.9696,465.1533 456.2696,465.0033 456.5696,464.7033 C 456.7946,464.4033 456.9446,464.0283 456.9446,463.5033 C 456.9446,462.9783 456.7946,462.6033 456.5696,462.3033 C 456.3446,462.0033 455.9696,461.8533 455.5196,461.8533 C 455.1446,461.8533 454.8446,462.0033 454.5446,462.3033 C 454.2446,462.6033 454.0946,462.9783 454.0946,463.4283" />
      <path
         id="path2795"
         style="fill:#000000;fill-opacity:1;fill-rule:nonzero;stroke:none"
         d="M 498.4946,459.5283 L 498.4946,458.7033 L 503.1446,458.7033 L 503.1446,459.3783 C 502.6946,459.9033 502.2446,460.5033 501.7946,461.3283 C 501.3446,462.1533 500.9696,462.9783 500.7446,463.8033 C 500.5946,464.4033 500.5196,465.0783 500.4446,465.7533 L 499.5446,465.7533 C 499.5446,465.2283 499.6196,464.5533 499.8446,463.7283 C 500.0696,462.9033 500.3696,462.1533 500.7446,461.4033 C 501.1196,460.6533 501.5696,460.0533 502.0196,459.5283 L 498.4946,459.5283" />
      <path
         id="path2797"
         style="fill:#000000;fill-opacity:1;fill-rule:nonzero;stroke:none"
         d="M 545.2196,461.8533 C 544.8446,461.7783 544.5446,461.5533 544.3946,461.3283 C 544.1696,461.1033 544.0946,460.8033 544.0946,460.4283 C 544.0946,459.9033 544.3196,459.4533 544.6946,459.0783 C 545.0696,458.7033 545.5196,458.5533 546.1946,458.5533 C 546.7946,458.5533 547.3196,458.7033 547.6946,459.0783 C 548.0696,459.4533 548.2196,459.9033 548.2196,460.4283 C 548.2196,460.8033 548.1446,461.1033 547.9946,461.3283 C 547.7696,461.5533 547.5446,461.7783 547.1696,461.8533 C 547.6196,462.0033 547.9946,462.2283 548.2196,462.6033 C 548.4446,462.9033 548.5196,463.2783 548.5196,463.7283 C 548.5196,464.3283 548.2946,464.8533 547.9196,465.2283 C 547.4696,465.6783 546.8696,465.9033 546.1946,465.9033 C 545.5196,465.9033 544.9196,465.6783 544.4696,465.2283 C 544.0196,464.8533 543.7946,464.3283 543.7946,463.6533 C 543.7946,463.2033 543.9446,462.8283 544.1696,462.5283 C 544.3946,462.2283 544.7696,462.0033 545.2196,461.8533 z M 544.9946,460.3533 C 544.9946,460.7283 545.1446,460.9533 545.3696,461.1783 C 545.5946,461.4033 545.8196,461.5533 546.1946,461.5533 C 546.5696,461.5533 546.7946,461.4783 547.0196,461.2533 C 547.2446,461.0283 547.3196,460.7283 547.3196,460.4283 C 547.3196,460.1283 547.2446,459.8283 547.0196,459.6033 C 546.7946,459.3783 546.4946,459.3033 546.1946,459.3033 C 545.8196,459.3033 545.5946,459.3783 545.3696,459.6033 C 545.1446,459.8283 544.9946,460.0533 544.9946,460.3533 z M 544.6946,463.7283 C 544.6946,463.9533 544.7696,464.1783 544.9196,464.4033 C 544.9946,464.6283 545.2196,464.8533 545.4446,464.9283 L 546.1946,465.1533 C 546.5696,465.1533 546.9446,465.0033 547.2446,464.7783 C 547.4696,464.4783 547.6196,464.1033 547.6196,463.7283 C 547.6196,463.2783 547.4696,462.9033 547.2446,462.6783 C 546.9446,462.3783 546.5696,462.2283 546.1946,462.2283 C 545.7446,462.2283 545.3696,462.3783 545.1446,462.6783 C 544.8446,462.9033 544.6946,463.2783 544.6946,463.7283" />
      <path
         id="path2799"
         style="fill:#000000;fill-opacity:1;fill-rule:nonzero;stroke:none"
         d="M 589.1696,464.1033 L 590.0696,464.0283 C 590.1446,464.4033 590.2196,464.7033 590.4446,464.8533 C 590.6696,465.0783 590.8946,465.1533 591.1946,465.1533 C 591.4946,465.1533 591.7196,465.0783 591.9446,465.0033 L 592.4696,464.4783 L 592.7696,463.6533 L 592.9196,462.5283 L 592.9196,462.3783 C 592.6946,462.6783 592.4696,462.9033 592.1696,463.0533 C 591.8696,463.2783 591.5696,463.3533 591.1946,463.3533 C 590.5946,463.3533 590.0696,463.1283 589.6946,462.6783 C 589.3196,462.3033 589.0946,461.7033 589.0946,460.9533 C 589.0946,460.2783 589.3196,459.6783 589.6946,459.2283 C 590.1446,458.7783 590.6696,458.5533 591.3446,458.5533 C 591.7946,458.5533 592.2446,458.7033 592.6196,458.9283 C 592.9946,459.1533 593.2196,459.5283 593.4446,460.0533 C 593.6696,460.5033 593.7446,461.1783 593.7446,462.0033 C 593.7446,462.9783 593.6696,463.7283 593.4446,464.2533 C 593.2196,464.7783 592.9946,465.1533 592.6196,465.4533 C 592.2446,465.7533 591.7196,465.9033 591.1946,465.9033 C 590.6696,465.9033 590.2196,465.7533 589.8446,465.3783 C 589.4696,465.0783 589.2446,464.6283 589.1696,464.1033 z M 592.7696,460.9533 C 592.7696,460.4283 592.6196,460.0533 592.3946,459.7533 C 592.1696,459.4533 591.7946,459.3033 591.4196,459.3033 C 591.0446,459.3033 590.6696,459.4533 590.3696,459.7533 C 590.1446,460.1283 589.9946,460.5033 589.9946,461.0283 C 589.9946,461.4783 590.1446,461.8533 590.3696,462.1533 C 590.6696,462.3783 591.0446,462.5283 591.4196,462.5283 C 591.7946,462.5283 592.1696,462.3783 592.3946,462.1533 C 592.6196,461.8533 592.7696,461.4783 592.7696,460.9533" />
      <path
         id="path2801"
         style="fill:#000000;fill-opacity:1;fill-rule:nonzero;stroke:none"
         d="M 634.9946,465.7533 L 634.0946,465.7533 L 634.0946,460.1283 C 633.8696,460.3533 633.6446,460.5033 633.2696,460.7283 C 632.8946,460.9533 632.5946,461.1033 632.3696,461.1783 L 632.3696,460.3533 C 632.8196,460.1283 633.2696,459.9033 633.6446,459.5283 C 634.0196,459.1533 634.2446,458.8533 634.3946,458.5533 L 634.9946,458.5533 L 634.9946,465.7533 z M 637.2446,462.2283 C 637.2446,461.4033 637.3196,460.7283 637.4696,460.2033 C 637.6196,459.6783 637.8446,459.2283 638.2196,459.0033 C 638.5946,458.7033 639.0446,458.5533 639.5696,458.5533 C 639.9446,458.5533 640.2446,458.6283 640.5446,458.7783 C 640.8446,458.9283 641.0696,459.1533 641.2946,459.4533 C 641.5196,459.7533 641.6696,460.1283 641.7446,460.5033 C 641.8196,460.9533 641.8946,461.5533 641.8946,462.2283 C 641.8946,463.0533 641.8196,463.7283 641.5946,464.2533 C 641.4446,464.7783 641.2196,465.1533 640.8446,465.4533 C 640.4696,465.7533 640.0946,465.9033 639.5696,465.9033 C 638.8946,465.9033 638.2946,465.6783 637.9196,465.1533 C 637.4696,464.5533 637.2446,463.5783 637.2446,462.2283 z M 638.1446,462.2283 C 638.1446,463.3533 638.2946,464.1783 638.5196,464.5533 C 638.8196,464.9283 639.1946,465.1533 639.5696,465.1533 C 639.9446,465.1533 640.3196,464.9283 640.5446,464.5533 C 640.8446,464.1783 640.9946,463.3533 640.9946,462.2283 C 640.9946,461.0283 640.8446,460.2783 640.5446,459.9033 C 640.3196,459.5283 639.9446,459.3033 639.5696,459.3033 C 639.1946,459.3033 638.8196,459.4533 638.5946,459.8283 C 638.2946,460.2033 638.1446,461.0283 638.1446,462.2283" />
      <path
         id="path2803"
         style="fill:#000000;fill-opacity:1;fill-rule:nonzero;stroke:none"
         d="M 680.2946,465.7533 L 679.3946,465.7533 L 679.3946,460.1283 C 679.1696,460.3533 678.9446,460.5033 678.5696,460.7283 C 678.1946,460.9533 677.8946,461.1033 677.6696,461.1783 L 677.6696,460.3533 C 678.1196,460.1283 678.5696,459.9033 678.9446,459.5283 C 679.3196,459.1533 679.5446,458.8533 679.6946,458.5533 L 680.2946,458.5533 L 680.2946,465.7533 z M 685.8446,465.7533 L 684.9446,465.7533 L 684.9446,460.1283 C 684.7196,460.3533 684.4946,460.5033 684.1196,460.7283 C 683.7446,460.9533 683.4446,461.1033 683.2196,461.1783 L 683.2196,460.3533 C 683.6696,460.1283 684.1196,459.9033 684.4946,459.5283 C 684.8696,459.1533 685.0946,458.8533 685.2446,458.5533 L 685.8446,458.5533 L 685.8446,465.7533" />
      <path
         id="path2805"
         style="fill:#000000;fill-opacity:1;fill-rule:nonzero;stroke:none"
         d="M 725.5946,465.7533 L 724.6946,465.7533 L 724.6946,460.1283 C 724.4696,460.3533 724.2446,460.5033 723.8696,460.7283 C 723.4946,460.9533 723.1946,461.1033 722.9696,461.1783 L 722.9696,460.3533 C 723.4196,460.1283 723.8696,459.9033 724.2446,459.5283 C 724.6196,459.1533 724.8446,458.8533 724.9946,458.5533 L 725.5946,458.5533 L 725.5946,465.7533 z M 732.4196,464.9283 L 732.4196,465.7533 L 727.6946,465.7533 L 727.7696,465.1533 C 727.9196,464.7783 728.1446,464.4783 728.3696,464.1783 C 728.5946,463.8783 729.0446,463.5033 729.5696,463.1283 C 730.3196,462.4533 730.8446,462.0033 731.0696,461.6283 C 731.3696,461.2533 731.5196,460.8783 731.5196,460.5033 C 731.5196,460.1283 731.3696,459.9033 731.1446,459.6783 C 730.9196,459.4533 730.5446,459.3033 730.1696,459.3033 C 729.7946,459.3033 729.4196,459.4533 729.1196,459.6783 C 728.8946,459.9033 728.7446,460.2783 728.7446,460.7283 L 727.8446,460.6533 C 727.9196,459.9783 728.2196,459.4533 728.5946,459.0783 C 728.9696,458.7033 729.4946,458.5533 730.1696,458.5533 C 730.8446,458.5533 731.4446,458.7783 731.8196,459.1533 C 732.1946,459.5283 732.4196,459.9783 732.4196,460.5783 C 732.4196,460.8033 732.3446,461.1033 732.2696,461.4033 L 731.6696,462.3033 C 731.3696,462.6033 730.9196,462.9783 730.3196,463.5033 L 729.2696,464.4033 L 728.8946,464.9283 L 732.4196,464.9283" />
      <path
         id="path2807"
         style="fill:#000000;fill-opacity:1;fill-rule:nonzero;stroke:none"
         d="M 770.8946,465.7533 L 769.9946,465.7533 L 769.9946,460.1283 C 769.7696,460.3533 769.5446,460.5033 769.1696,460.7283 C 768.7946,460.9533 768.4946,461.1033 768.2696,461.1783 L 768.2696,460.3533 C 768.7196,460.1283 769.1696,459.9033 769.5446,459.5283 C 769.9196,459.1533 770.1446,458.8533 770.2946,458.5533 L 770.8946,458.5533 L 770.8946,465.7533 z M 773.1446,463.8783 L 773.9696,463.7283 C 774.0446,464.2533 774.2696,464.6283 774.4946,464.8533 C 774.7196,465.0783 775.0196,465.1533 775.3946,465.1533 C 775.7696,465.1533 776.1446,465.0033 776.4446,464.7033 C 776.7446,464.4783 776.8946,464.1033 776.8946,463.6533 C 776.8946,463.2783 776.7446,462.9033 776.4446,462.6783 C 776.2196,462.4533 775.8446,462.3033 775.4696,462.3033 L 774.8696,462.3783 L 774.9446,461.6283 L 775.0946,461.6283 C 775.4696,461.6283 775.7696,461.5533 776.0696,461.3283 C 776.3696,461.1033 776.5196,460.8033 776.5196,460.4283 C 776.5196,460.0533 776.4446,459.8283 776.2196,459.6033 C 775.9946,459.3783 775.7696,459.3033 775.3946,459.3033 C 775.0196,459.3033 774.7196,459.3783 774.4946,459.6033 C 774.2696,459.8283 774.1196,460.1283 774.0446,460.5783 L 773.2196,460.4283 C 773.2946,459.8283 773.5946,459.3783 773.9696,459.0783 C 774.3446,458.7033 774.7946,458.5533 775.3946,458.5533 C 775.7696,458.5533 776.0696,458.6283 776.4446,458.8533 C 776.8196,459.0033 777.0446,459.2283 777.1946,459.5283 C 777.3446,459.8283 777.4196,460.1283 777.4196,460.4283 C 777.4196,460.7283 777.3446,461.0283 777.1946,461.2533 C 777.0446,461.4783 776.8196,461.7033 776.4446,461.8533 C 776.8946,461.9283 777.1946,462.1533 777.4196,462.5283 C 777.6446,462.8283 777.7946,463.2033 777.7946,463.6533 C 777.7946,464.2533 777.5696,464.7783 777.1196,465.2283 C 776.6696,465.6783 776.0696,465.9033 775.3946,465.9033 C 774.7196,465.9033 774.1946,465.6783 773.8196,465.3033 C 773.4446,464.9283 773.2196,464.4783 773.1446,463.8783" />
      <path
         id="path2809"
         style="fill:#000000;fill-opacity:1;fill-rule:nonzero;stroke:none"
         d="M 816.2696,465.7533 L 815.3696,465.7533 L 815.3696,460.1283 C 815.1446,460.3533 814.9196,460.5033 814.5446,460.7283 C 814.1696,460.9533 813.8696,461.1033 813.6446,461.1783 L 813.6446,460.3533 C 814.0946,460.1283 814.5446,459.9033 814.9196,459.5283 C 815.2946,459.1533 815.5196,458.8533 815.6696,458.5533 L 816.2696,458.5533 L 816.2696,465.7533 z M 821.2946,465.7533 L 821.2946,464.0283 L 818.2196,464.0283 L 818.2196,463.2033 L 821.4446,458.6283 L 822.1946,458.6283 L 822.1946,463.2033 L 823.1696,463.2033 L 823.1696,464.0283 L 822.1946,464.0283 L 822.1946,465.7533 L 821.2946,465.7533 z M 821.2946,463.2033 L 821.2946,459.9783 L 819.0446,463.2033 L 821.2946,463.2033" />
      <path
         id="path2811"
         style="fill:#000000;fill-opacity:1;fill-rule:nonzero;stroke:none"
         d="M 861.4946,465.7533 L 860.5946,465.7533 L 860.5946,460.1283 C 860.3696,460.3533 860.1446,460.5033 859.7696,460.7283 C 859.3946,460.9533 859.0946,461.1033 858.8696,461.1783 L 858.8696,460.3533 C 859.3196,460.1283 859.7696,459.9033 860.1446,459.5283 C 860.5196,459.1533 860.7446,458.8533 860.8946,458.5533 L 861.4946,458.5533 L 861.4946,465.7533 z M 863.7446,463.8783 L 864.6446,463.8033 C 864.7196,464.2533 864.8696,464.6283 865.0946,464.8533 C 865.3196,465.0783 865.6196,465.1533 865.9946,465.1533 C 866.4446,465.1533 866.8196,465.0033 867.1196,464.7033 C 867.3446,464.3283 867.4946,463.9533 867.4946,463.4283 C 867.4946,462.9033 867.3446,462.5283 867.1196,462.2283 C 866.8196,461.9283 866.4446,461.7783 865.9946,461.7783 C 865.6946,461.7783 865.4696,461.8533 865.2446,462.0033 C 865.0196,462.0783 864.7946,462.2283 864.7196,462.4533 L 863.8946,462.3783 L 864.5696,458.7033 L 868.0946,458.7033 L 868.0946,459.5283 L 865.2446,459.5283 L 864.8696,461.4783 C 865.3196,461.1783 865.7696,461.0283 866.2196,461.0283 C 866.8946,461.0283 867.4196,461.2533 867.7946,461.6283 C 868.2446,462.0783 868.4696,462.6783 868.4696,463.3533 C 868.4696,464.0283 868.2446,464.5533 867.8696,465.0033 C 867.4196,465.6033 866.8196,465.9033 865.9946,465.9033 C 865.3196,465.9033 864.7946,465.6783 864.4196,465.3033 C 864.0446,464.9283 863.8196,464.4783 863.7446,463.8783" />
      <path
         id="path2813"
         style="fill:none;stroke:#000000;stroke-width:0.075;stroke-linecap:round;stroke-linejoin:round;stroke-miterlimit:10;stroke-dasharray:none;stroke-opacity:1"
         d="M 138.3446,299.5533 L 863.3696,299.5533" />
      <path
         id="path2815"
         style="fill:none;stroke:#000000;stroke-width:1.27499998;stroke-linecap:round;stroke-linejoin:round;stroke-miterlimit:10;stroke-dasharray:none;stroke-opacity:1"
         d="M 138.3446,346.4283 L 863.3696,346.4283" />
      <path
         id="path2817"
         style="fill:none;stroke:#000000;stroke-width:2.4749999;stroke-linecap:round;stroke-linejoin:round;stroke-miterlimit:10;stroke-dasharray:none;stroke-opacity:1"
         d="M 138.3446,393.3033 L 863.3696,393.3033 M 138.3446,440.1783 L 863.3696,440.1783" />
    </g>
    <g
       id="g2819"
       transform="translate(23.392741,216.31618)">
      <path
         id="path2821"
         style="fill:#cdcdcd;fill-opacity:1;fill-rule:evenodd;stroke:none"
         d="M 290.8946,369.9033 L 296.8946,366.9033 L 302.8946,369.9033 L 296.8946,372.9033 L 290.8946,369.9033" />
      <path
         id="path2823"
         style="fill:#cdcdcd;fill-opacity:1;fill-rule:evenodd;stroke:none"
         d="M 381.4946,369.9033 L 387.4946,366.9033 L 393.4946,369.9033 L 387.4946,372.9033 L 381.4946,369.9033" />
      <path
         id="path2825"
         style="fill:#cdcdcd;fill-opacity:1;fill-rule:evenodd;stroke:none"
         d="M 472.1696,369.9033 L 478.1696,366.9033 L 484.1696,369.9033 L 478.1696,372.9033 L 472.1696,369.9033" />
      <path
         id="path2827"
         style="fill:#cdcdcd;fill-opacity:1;fill-rule:evenodd;stroke:none"
         d="M 562.7696,369.9033 L 568.7696,366.9033 L 574.7696,369.9033 L 568.7696,372.9033 L 562.7696,369.9033" />
      <path
         id="path2829"
         style="fill:#cdcdcd;fill-opacity:1;fill-rule:evenodd;stroke:none"
         d="M 698.7446,323.0283 L 704.7446,320.0283 L 710.7446,323.0283 L 704.7446,326.0283 L 698.7446,323.0283" />
      <path
         id="path2831"
         style="fill:#cdcdcd;fill-opacity:1;fill-rule:evenodd;stroke:none"
         d="M 834.6446,369.9033 L 840.6446,366.9033 L 846.6446,369.9033 L 840.6446,372.9033 L 834.6446,369.9033" />
      <path
         id="path2833"
         style="fill:#cdcdcd;fill-opacity:1;fill-rule:evenodd;stroke:none"
         d="M 698.7446,416.7783 L 704.7446,413.7783 L 710.7446,416.7783 L 704.7446,419.7783 L 698.7446,416.7783" />
      <path
         id="path2835"
         style="fill:none;stroke:#000000;stroke-width:3.75;stroke-linecap:round;stroke-linejoin:round;stroke-miterlimit:10;stroke-dasharray:none;stroke-opacity:1"
         d="M 183.6446,285.5283 L 183.6446,454.2783" />
      <path
         id="path2837"
         style="fill:none;stroke:#000000;stroke-width:1.27499998;stroke-linecap:round;stroke-linejoin:round;stroke-miterlimit:10;stroke-dasharray:none;stroke-opacity:1"
         d="M 228.9446,285.5283 L 228.9446,454.2783 M 274.2446,285.5283 L 274.2446,454.2783 M 319.6196,285.5283 L 319.6196,454.2783 M 364.9196,285.5283 L 364.9196,454.2783 M 410.2196,285.5283 L 410.2196,454.2783 M 455.5196,285.5283 L 455.5196,454.2783 M 500.8196,285.5283 L 500.8196,454.2783 M 546.1196,285.5283 L 546.1196,454.2783 M 591.4946,285.5283 L 591.4946,454.2783 M 636.7946,285.5283 L 636.7946,454.2783 M 682.0946,285.5283 L 682.0946,454.2783 M 727.3946,285.5283 L 727.3946,454.2783 M 772.6946,285.5283 L 772.6946,454.2783 M 817.9946,285.5283 L 817.9946,454.2783 M 863.3696,285.5283 L 863.3696,454.2783" />
      <path
         id="path2839"
         style="fill:#000000;fill-opacity:1;fill-rule:nonzero;stroke:none"
         d="M 181.3196,462.2283 C 181.3196,461.4033 181.3946,460.7283 181.5446,460.2033 C 181.6946,459.6783 181.9196,459.2283 182.2946,459.0033 C 182.6696,458.7033 183.1196,458.5533 183.6446,458.5533 C 184.0196,458.5533 184.3196,458.6283 184.6196,458.7783 C 184.9196,458.9283 185.1446,459.1533 185.3696,459.4533 C 185.5946,459.7533 185.7446,460.1283 185.8196,460.5033 C 185.8946,460.9533 185.9696,461.5533 185.9696,462.2283 C 185.9696,463.0533 185.8946,463.7283 185.6696,464.2533 C 185.5196,464.7783 185.2946,465.1533 184.9196,465.4533 C 184.5446,465.7533 184.1696,465.9033 183.6446,465.9033 C 182.9696,465.9033 182.3696,465.6783 181.9946,465.1533 C 181.5446,464.5533 181.3196,463.5783 181.3196,462.2283 z M 182.2196,462.2283 C 182.2196,463.3533 182.3696,464.1783 182.5946,464.5533 C 182.8946,464.9283 183.2696,465.1533 183.6446,465.1533 C 184.0196,465.1533 184.3946,464.9283 184.6196,464.5533 C 184.9196,464.1783 185.0696,463.3533 185.0696,462.2283 C 185.0696,461.0283 184.9196,460.2783 184.6196,459.9033 C 184.3946,459.5283 184.0196,459.3033 183.6446,459.3033 C 183.2696,459.3033 182.8946,459.4533 182.6696,459.8283 C 182.3696,460.2033 182.2196,461.0283 182.2196,462.2283" />
      <path
         id="path2841"
         style="fill:#000000;fill-opacity:1;fill-rule:nonzero;stroke:none"
         d="M 229.9196,465.7533 L 229.0196,465.7533 L 229.0196,460.1283 C 228.7946,460.3533 228.5696,460.5033 228.1946,460.7283 C 227.8196,460.9533 227.5196,461.1033 227.2946,461.1783 L 227.2946,460.3533 C 227.7446,460.1283 228.1946,459.9033 228.5696,459.5283 C 228.9446,459.1533 229.1696,458.8533 229.3196,458.5533 L 229.9196,458.5533 L 229.9196,465.7533" />
      <path
         id="path2843"
         style="fill:#000000;fill-opacity:1;fill-rule:nonzero;stroke:none"
         d="M 276.5696,464.9283 L 276.5696,465.7533 L 271.8446,465.7533 L 271.9196,465.1533 C 272.0696,464.7783 272.2946,464.4783 272.5196,464.1783 C 272.7446,463.8783 273.1946,463.5033 273.7196,463.1283 C 274.4696,462.4533 274.9946,462.0033 275.2196,461.6283 C 275.5196,461.2533 275.6696,460.8783 275.6696,460.5033 C 275.6696,460.1283 275.5196,459.9033 275.2946,459.6783 C 275.0696,459.4533 274.6946,459.3033 274.3196,459.3033 C 273.9446,459.3033 273.5696,459.4533 273.2696,459.6783 C 273.0446,459.9033 272.8946,460.2783 272.8946,460.7283 L 271.9946,460.6533 C 272.0696,459.9783 272.3696,459.4533 272.7446,459.0783 C 273.1196,458.7033 273.6446,458.5533 274.3196,458.5533 C 274.9946,458.5533 275.5946,458.7783 275.9696,459.1533 C 276.3446,459.5283 276.5696,459.9783 276.5696,460.5783 C 276.5696,460.8033 276.4946,461.1033 276.4196,461.4033 L 275.8196,462.3033 C 275.5196,462.6033 275.0696,462.9783 274.4696,463.5033 L 273.4196,464.4033 L 273.0446,464.9283 L 276.5696,464.9283" />
      <path
         id="path2845"
         style="fill:#000000;fill-opacity:1;fill-rule:nonzero;stroke:none"
         d="M 317.2196,463.8783 L 318.0446,463.7283 C 318.1196,464.2533 318.3446,464.6283 318.5696,464.8533 C 318.7946,465.0783 319.0946,465.1533 319.4696,465.1533 C 319.8446,465.1533 320.2196,465.0033 320.5196,464.7033 C 320.8196,464.4783 320.9696,464.1033 320.9696,463.6533 C 320.9696,463.2783 320.8196,462.9033 320.5196,462.6783 C 320.2946,462.4533 319.9196,462.3033 319.5446,462.3033 L 318.9446,462.3783 L 319.0196,461.6283 L 319.1696,461.6283 C 319.5446,461.6283 319.8446,461.5533 320.1446,461.3283 C 320.4446,461.1033 320.5946,460.8033 320.5946,460.4283 C 320.5946,460.0533 320.5196,459.8283 320.2946,459.6033 C 320.0696,459.3783 319.8446,459.3033 319.4696,459.3033 C 319.0946,459.3033 318.7946,459.3783 318.5696,459.6033 C 318.3446,459.8283 318.1946,460.1283 318.1196,460.5783 L 317.2946,460.4283 C 317.3696,459.8283 317.6696,459.3783 318.0446,459.0783 C 318.4196,458.7033 318.8696,458.5533 319.4696,458.5533 C 319.8446,458.5533 320.1446,458.6283 320.5196,458.8533 C 320.8946,459.0033 321.1196,459.2283 321.2696,459.5283 C 321.4196,459.8283 321.4946,460.1283 321.4946,460.4283 C 321.4946,460.7283 321.4196,461.0283 321.2696,461.2533 C 321.1196,461.4783 320.8946,461.7033 320.5196,461.8533 C 320.9696,461.9283 321.2696,462.1533 321.4946,462.5283 C 321.7196,462.8283 321.8696,463.2033 321.8696,463.6533 C 321.8696,464.2533 321.6446,464.7783 321.1946,465.2283 C 320.7446,465.6783 320.1446,465.9033 319.4696,465.9033 C 318.7946,465.9033 318.2696,465.6783 317.8946,465.3033 C 317.5196,464.9283 317.2946,464.4783 317.2196,463.8783" />
      <path
         id="path2847"
         style="fill:#000000;fill-opacity:1;fill-rule:nonzero;stroke:none"
         d="M 365.3696,465.7533 L 365.3696,464.0283 L 362.2946,464.0283 L 362.2946,463.2033 L 365.5196,458.6283 L 366.2696,458.6283 L 366.2696,463.2033 L 367.2446,463.2033 L 367.2446,464.0283 L 366.2696,464.0283 L 366.2696,465.7533 L 365.3696,465.7533 z M 365.3696,463.2033 L 365.3696,459.9783 L 363.1196,463.2033 L 365.3696,463.2033" />
      <path
         id="path2849"
         style="fill:#000000;fill-opacity:1;fill-rule:nonzero;stroke:none"
         d="M 407.8946,463.8783 L 408.7946,463.8033 C 408.8696,464.2533 409.0196,464.6283 409.2446,464.8533 C 409.4696,465.0783 409.7696,465.1533 410.1446,465.1533 C 410.5946,465.1533 410.9696,465.0033 411.2696,464.7033 C 411.4946,464.3283 411.6446,463.9533 411.6446,463.4283 C 411.6446,462.9033 411.4946,462.5283 411.2696,462.2283 C 410.9696,461.9283 410.5946,461.7783 410.1446,461.7783 C 409.8446,461.7783 409.6196,461.8533 409.3946,462.0033 C 409.1696,462.0783 408.9446,462.2283 408.8696,462.4533 L 408.0446,462.3783 L 408.7196,458.7033 L 412.2446,458.7033 L 412.2446,459.5283 L 409.3946,459.5283 L 409.0196,461.4783 C 409.4696,461.1783 409.9196,461.0283 410.3696,461.0283 C 411.0446,461.0283 411.5696,461.2533 411.9446,461.6283 C 412.3946,462.0783 412.6196,462.6783 412.6196,463.3533 C 412.6196,464.0283 412.3946,464.5533 412.0196,465.0033 C 411.5696,465.6033 410.9696,465.9033 410.1446,465.9033 C 409.4696,465.9033 408.9446,465.6783 408.5696,465.3033 C 408.1946,464.9283 407.9696,464.4783 407.8946,463.8783" />
      <path
         id="path2851"
         style="fill:#000000;fill-opacity:1;fill-rule:nonzero;stroke:none"
         d="M 457.6946,460.3533 L 456.8696,460.4283 C 456.7946,460.0533 456.6446,459.8283 456.4946,459.6783 C 456.2696,459.4533 456.0446,459.3033 455.6696,459.3033 C 455.3696,459.3033 455.1446,459.3783 454.9196,459.5283 C 454.6196,459.7533 454.3946,460.0533 454.2446,460.4283 C 454.0946,460.8033 454.0196,461.3283 454.0196,462.0783 C 454.2446,461.7033 454.4696,461.4783 454.7696,461.3283 C 455.0696,461.1783 455.3696,461.1033 455.7446,461.1033 C 456.3446,461.1033 456.8696,461.3283 457.2446,461.7783 C 457.6196,462.1533 457.8446,462.7533 457.8446,463.4283 C 457.8446,463.8783 457.7696,464.3283 457.5446,464.7033 C 457.3196,465.0783 457.0946,465.3783 456.7946,465.6033 C 456.4196,465.8283 456.0446,465.9033 455.5946,465.9033 C 454.9196,465.9033 454.3196,465.6033 453.7946,465.0783 C 453.3446,464.5533 453.1196,463.6533 453.1196,462.3783 C 453.1196,461.0283 453.3446,460.0533 453.8696,459.3783 C 454.3196,458.8533 454.9196,458.5533 455.6696,458.5533 C 456.2696,458.5533 456.7196,458.7033 457.0946,459.0783 C 457.4696,459.3783 457.6196,459.8283 457.6946,460.3533 z M 454.0946,463.4283 L 454.3196,464.3283 L 454.8446,464.9283 L 455.5946,465.1533 C 455.9696,465.1533 456.2696,465.0033 456.5696,464.7033 C 456.7946,464.4033 456.9446,464.0283 456.9446,463.5033 C 456.9446,462.9783 456.7946,462.6033 456.5696,462.3033 C 456.3446,462.0033 455.9696,461.8533 455.5196,461.8533 C 455.1446,461.8533 454.8446,462.0033 454.5446,462.3033 C 454.2446,462.6033 454.0946,462.9783 454.0946,463.4283" />
      <path
         id="path2853"
         style="fill:#000000;fill-opacity:1;fill-rule:nonzero;stroke:none"
         d="M 498.4946,459.5283 L 498.4946,458.7033 L 503.1446,458.7033 L 503.1446,459.3783 C 502.6946,459.9033 502.2446,460.5033 501.7946,461.3283 C 501.3446,462.1533 500.9696,462.9783 500.7446,463.8033 C 500.5946,464.4033 500.5196,465.0783 500.4446,465.7533 L 499.5446,465.7533 C 499.5446,465.2283 499.6196,464.5533 499.8446,463.7283 C 500.0696,462.9033 500.3696,462.1533 500.7446,461.4033 C 501.1196,460.6533 501.5696,460.0533 502.0196,459.5283 L 498.4946,459.5283" />
      <path
         id="path2855"
         style="fill:#000000;fill-opacity:1;fill-rule:nonzero;stroke:none"
         d="M 545.2196,461.8533 C 544.8446,461.7783 544.5446,461.5533 544.3946,461.3283 C 544.1696,461.1033 544.0946,460.8033 544.0946,460.4283 C 544.0946,459.9033 544.3196,459.4533 544.6946,459.0783 C 545.0696,458.7033 545.5196,458.5533 546.1946,458.5533 C 546.7946,458.5533 547.3196,458.7033 547.6946,459.0783 C 548.0696,459.4533 548.2196,459.9033 548.2196,460.4283 C 548.2196,460.8033 548.1446,461.1033 547.9946,461.3283 C 547.7696,461.5533 547.5446,461.7783 547.1696,461.8533 C 547.6196,462.0033 547.9946,462.2283 548.2196,462.6033 C 548.4446,462.9033 548.5196,463.2783 548.5196,463.7283 C 548.5196,464.3283 548.2946,464.8533 547.9196,465.2283 C 547.4696,465.6783 546.8696,465.9033 546.1946,465.9033 C 545.5196,465.9033 544.9196,465.6783 544.4696,465.2283 C 544.0196,464.8533 543.7946,464.3283 543.7946,463.6533 C 543.7946,463.2033 543.9446,462.8283 544.1696,462.5283 C 544.3946,462.2283 544.7696,462.0033 545.2196,461.8533 z M 544.9946,460.3533 C 544.9946,460.7283 545.1446,460.9533 545.3696,461.1783 C 545.5946,461.4033 545.8196,461.5533 546.1946,461.5533 C 546.5696,461.5533 546.7946,461.4783 547.0196,461.2533 C 547.2446,461.0283 547.3196,460.7283 547.3196,460.4283 C 547.3196,460.1283 547.2446,459.8283 547.0196,459.6033 C 546.7946,459.3783 546.4946,459.3033 546.1946,459.3033 C 545.8196,459.3033 545.5946,459.3783 545.3696,459.6033 C 545.1446,459.8283 544.9946,460.0533 544.9946,460.3533 z M 544.6946,463.7283 C 544.6946,463.9533 544.7696,464.1783 544.9196,464.4033 C 544.9946,464.6283 545.2196,464.8533 545.4446,464.9283 L 546.1946,465.1533 C 546.5696,465.1533 546.9446,465.0033 547.2446,464.7783 C 547.4696,464.4783 547.6196,464.1033 547.6196,463.7283 C 547.6196,463.2783 547.4696,462.9033 547.2446,462.6783 C 546.9446,462.3783 546.5696,462.2283 546.1946,462.2283 C 545.7446,462.2283 545.3696,462.3783 545.1446,462.6783 C 544.8446,462.9033 544.6946,463.2783 544.6946,463.7283" />
      <path
         id="path2857"
         style="fill:#000000;fill-opacity:1;fill-rule:nonzero;stroke:none"
         d="M 589.1696,464.1033 L 590.0696,464.0283 C 590.1446,464.4033 590.2196,464.7033 590.4446,464.8533 C 590.6696,465.0783 590.8946,465.1533 591.1946,465.1533 C 591.4946,465.1533 591.7196,465.0783 591.9446,465.0033 L 592.4696,464.4783 L 592.7696,463.6533 L 592.9196,462.5283 L 592.9196,462.3783 C 592.6946,462.6783 592.4696,462.9033 592.1696,463.0533 C 591.8696,463.2783 591.5696,463.3533 591.1946,463.3533 C 590.5946,463.3533 590.0696,463.1283 589.6946,462.6783 C 589.3196,462.3033 589.0946,461.7033 589.0946,460.9533 C 589.0946,460.2783 589.3196,459.6783 589.6946,459.2283 C 590.1446,458.7783 590.6696,458.5533 591.3446,458.5533 C 591.7946,458.5533 592.2446,458.7033 592.6196,458.9283 C 592.9946,459.1533 593.2196,459.5283 593.4446,460.0533 C 593.6696,460.5033 593.7446,461.1783 593.7446,462.0033 C 593.7446,462.9783 593.6696,463.7283 593.4446,464.2533 C 593.2196,464.7783 592.9946,465.1533 592.6196,465.4533 C 592.2446,465.7533 591.7196,465.9033 591.1946,465.9033 C 590.6696,465.9033 590.2196,465.7533 589.8446,465.3783 C 589.4696,465.0783 589.2446,464.6283 589.1696,464.1033 z M 592.7696,460.9533 C 592.7696,460.4283 592.6196,460.0533 592.3946,459.7533 C 592.1696,459.4533 591.7946,459.3033 591.4196,459.3033 C 591.0446,459.3033 590.6696,459.4533 590.3696,459.7533 C 590.1446,460.1283 589.9946,460.5033 589.9946,461.0283 C 589.9946,461.4783 590.1446,461.8533 590.3696,462.1533 C 590.6696,462.3783 591.0446,462.5283 591.4196,462.5283 C 591.7946,462.5283 592.1696,462.3783 592.3946,462.1533 C 592.6196,461.8533 592.7696,461.4783 592.7696,460.9533" />
      <path
         id="path2859"
         style="fill:#000000;fill-opacity:1;fill-rule:nonzero;stroke:none"
         d="M 634.9946,465.7533 L 634.0946,465.7533 L 634.0946,460.1283 C 633.8696,460.3533 633.6446,460.5033 633.2696,460.7283 C 632.8946,460.9533 632.5946,461.1033 632.3696,461.1783 L 632.3696,460.3533 C 632.8196,460.1283 633.2696,459.9033 633.6446,459.5283 C 634.0196,459.1533 634.2446,458.8533 634.3946,458.5533 L 634.9946,458.5533 L 634.9946,465.7533 z M 637.2446,462.2283 C 637.2446,461.4033 637.3196,460.7283 637.4696,460.2033 C 637.6196,459.6783 637.8446,459.2283 638.2196,459.0033 C 638.5946,458.7033 639.0446,458.5533 639.5696,458.5533 C 639.9446,458.5533 640.2446,458.6283 640.5446,458.7783 C 640.8446,458.9283 641.0696,459.1533 641.2946,459.4533 C 641.5196,459.7533 641.6696,460.1283 641.7446,460.5033 C 641.8196,460.9533 641.8946,461.5533 641.8946,462.2283 C 641.8946,463.0533 641.8196,463.7283 641.5946,464.2533 C 641.4446,464.7783 641.2196,465.1533 640.8446,465.4533 C 640.4696,465.7533 640.0946,465.9033 639.5696,465.9033 C 638.8946,465.9033 638.2946,465.6783 637.9196,465.1533 C 637.4696,464.5533 637.2446,463.5783 637.2446,462.2283 z M 638.1446,462.2283 C 638.1446,463.3533 638.2946,464.1783 638.5196,464.5533 C 638.8196,464.9283 639.1946,465.1533 639.5696,465.1533 C 639.9446,465.1533 640.3196,464.9283 640.5446,464.5533 C 640.8446,464.1783 640.9946,463.3533 640.9946,462.2283 C 640.9946,461.0283 640.8446,460.2783 640.5446,459.9033 C 640.3196,459.5283 639.9446,459.3033 639.5696,459.3033 C 639.1946,459.3033 638.8196,459.4533 638.5946,459.8283 C 638.2946,460.2033 638.1446,461.0283 638.1446,462.2283" />
      <path
         id="path2861"
         style="fill:#000000;fill-opacity:1;fill-rule:nonzero;stroke:none"
         d="M 680.2946,465.7533 L 679.3946,465.7533 L 679.3946,460.1283 C 679.1696,460.3533 678.9446,460.5033 678.5696,460.7283 C 678.1946,460.9533 677.8946,461.1033 677.6696,461.1783 L 677.6696,460.3533 C 678.1196,460.1283 678.5696,459.9033 678.9446,459.5283 C 679.3196,459.1533 679.5446,458.8533 679.6946,458.5533 L 680.2946,458.5533 L 680.2946,465.7533 z M 685.8446,465.7533 L 684.9446,465.7533 L 684.9446,460.1283 C 684.7196,460.3533 684.4946,460.5033 684.1196,460.7283 C 683.7446,460.9533 683.4446,461.1033 683.2196,461.1783 L 683.2196,460.3533 C 683.6696,460.1283 684.1196,459.9033 684.4946,459.5283 C 684.8696,459.1533 685.0946,458.8533 685.2446,458.5533 L 685.8446,458.5533 L 685.8446,465.7533" />
      <path
         id="path2863"
         style="fill:#000000;fill-opacity:1;fill-rule:nonzero;stroke:none"
         d="M 725.5946,465.7533 L 724.6946,465.7533 L 724.6946,460.1283 C 724.4696,460.3533 724.2446,460.5033 723.8696,460.7283 C 723.4946,460.9533 723.1946,461.1033 722.9696,461.1783 L 722.9696,460.3533 C 723.4196,460.1283 723.8696,459.9033 724.2446,459.5283 C 724.6196,459.1533 724.8446,458.8533 724.9946,458.5533 L 725.5946,458.5533 L 725.5946,465.7533 z M 732.4196,464.9283 L 732.4196,465.7533 L 727.6946,465.7533 L 727.7696,465.1533 C 727.9196,464.7783 728.1446,464.4783 728.3696,464.1783 C 728.5946,463.8783 729.0446,463.5033 729.5696,463.1283 C 730.3196,462.4533 730.8446,462.0033 731.0696,461.6283 C 731.3696,461.2533 731.5196,460.8783 731.5196,460.5033 C 731.5196,460.1283 731.3696,459.9033 731.1446,459.6783 C 730.9196,459.4533 730.5446,459.3033 730.1696,459.3033 C 729.7946,459.3033 729.4196,459.4533 729.1196,459.6783 C 728.8946,459.9033 728.7446,460.2783 728.7446,460.7283 L 727.8446,460.6533 C 727.9196,459.9783 728.2196,459.4533 728.5946,459.0783 C 728.9696,458.7033 729.4946,458.5533 730.1696,458.5533 C 730.8446,458.5533 731.4446,458.7783 731.8196,459.1533 C 732.1946,459.5283 732.4196,459.9783 732.4196,460.5783 C 732.4196,460.8033 732.3446,461.1033 732.2696,461.4033 L 731.6696,462.3033 C 731.3696,462.6033 730.9196,462.9783 730.3196,463.5033 L 729.2696,464.4033 L 728.8946,464.9283 L 732.4196,464.9283" />
      <path
         id="path2865"
         style="fill:#000000;fill-opacity:1;fill-rule:nonzero;stroke:none"
         d="M 770.8946,465.7533 L 769.9946,465.7533 L 769.9946,460.1283 C 769.7696,460.3533 769.5446,460.5033 769.1696,460.7283 C 768.7946,460.9533 768.4946,461.1033 768.2696,461.1783 L 768.2696,460.3533 C 768.7196,460.1283 769.1696,459.9033 769.5446,459.5283 C 769.9196,459.1533 770.1446,458.8533 770.2946,458.5533 L 770.8946,458.5533 L 770.8946,465.7533 z M 773.1446,463.8783 L 773.9696,463.7283 C 774.0446,464.2533 774.2696,464.6283 774.4946,464.8533 C 774.7196,465.0783 775.0196,465.1533 775.3946,465.1533 C 775.7696,465.1533 776.1446,465.0033 776.4446,464.7033 C 776.7446,464.4783 776.8946,464.1033 776.8946,463.6533 C 776.8946,463.2783 776.7446,462.9033 776.4446,462.6783 C 776.2196,462.4533 775.8446,462.3033 775.4696,462.3033 L 774.8696,462.3783 L 774.9446,461.6283 L 775.0946,461.6283 C 775.4696,461.6283 775.7696,461.5533 776.0696,461.3283 C 776.3696,461.1033 776.5196,460.8033 776.5196,460.4283 C 776.5196,460.0533 776.4446,459.8283 776.2196,459.6033 C 775.9946,459.3783 775.7696,459.3033 775.3946,459.3033 C 775.0196,459.3033 774.7196,459.3783 774.4946,459.6033 C 774.2696,459.8283 774.1196,460.1283 774.0446,460.5783 L 773.2196,460.4283 C 773.2946,459.8283 773.5946,459.3783 773.9696,459.0783 C 774.3446,458.7033 774.7946,458.5533 775.3946,458.5533 C 775.7696,458.5533 776.0696,458.6283 776.4446,458.8533 C 776.8196,459.0033 777.0446,459.2283 777.1946,459.5283 C 777.3446,459.8283 777.4196,460.1283 777.4196,460.4283 C 777.4196,460.7283 777.3446,461.0283 777.1946,461.2533 C 777.0446,461.4783 776.8196,461.7033 776.4446,461.8533 C 776.8946,461.9283 777.1946,462.1533 777.4196,462.5283 C 777.6446,462.8283 777.7946,463.2033 777.7946,463.6533 C 777.7946,464.2533 777.5696,464.7783 777.1196,465.2283 C 776.6696,465.6783 776.0696,465.9033 775.3946,465.9033 C 774.7196,465.9033 774.1946,465.6783 773.8196,465.3033 C 773.4446,464.9283 773.2196,464.4783 773.1446,463.8783" />
      <path
         id="path2867"
         style="fill:#000000;fill-opacity:1;fill-rule:nonzero;stroke:none"
         d="M 816.2696,465.7533 L 815.3696,465.7533 L 815.3696,460.1283 C 815.1446,460.3533 814.9196,460.5033 814.5446,460.7283 C 814.1696,460.9533 813.8696,461.1033 813.6446,461.1783 L 813.6446,460.3533 C 814.0946,460.1283 814.5446,459.9033 814.9196,459.5283 C 815.2946,459.1533 815.5196,458.8533 815.6696,458.5533 L 816.2696,458.5533 L 816.2696,465.7533 z M 821.2946,465.7533 L 821.2946,464.0283 L 818.2196,464.0283 L 818.2196,463.2033 L 821.4446,458.6283 L 822.1946,458.6283 L 822.1946,463.2033 L 823.1696,463.2033 L 823.1696,464.0283 L 822.1946,464.0283 L 822.1946,465.7533 L 821.2946,465.7533 z M 821.2946,463.2033 L 821.2946,459.9783 L 819.0446,463.2033 L 821.2946,463.2033" />
      <path
         id="path2869"
         style="fill:#000000;fill-opacity:1;fill-rule:nonzero;stroke:none"
         d="M 861.4946,465.7533 L 860.5946,465.7533 L 860.5946,460.1283 C 860.3696,460.3533 860.1446,460.5033 859.7696,460.7283 C 859.3946,460.9533 859.0946,461.1033 858.8696,461.1783 L 858.8696,460.3533 C 859.3196,460.1283 859.7696,459.9033 860.1446,459.5283 C 860.5196,459.1533 860.7446,458.8533 860.8946,458.5533 L 861.4946,458.5533 L 861.4946,465.7533 z M 863.7446,463.8783 L 864.6446,463.8033 C 864.7196,464.2533 864.8696,464.6283 865.0946,464.8533 C 865.3196,465.0783 865.6196,465.1533 865.9946,465.1533 C 866.4446,465.1533 866.8196,465.0033 867.1196,464.7033 C 867.3446,464.3283 867.4946,463.9533 867.4946,463.4283 C 867.4946,462.9033 867.3446,462.5283 867.1196,462.2283 C 866.8196,461.9283 866.4446,461.7783 865.9946,461.7783 C 865.6946,461.7783 865.4696,461.8533 865.2446,462.0033 C 865.0196,462.0783 864.7946,462.2283 864.7196,462.4533 L 863.8946,462.3783 L 864.5696,458.7033 L 868.0946,458.7033 L 868.0946,459.5283 L 865.2446,459.5283 L 864.8696,461.4783 C 865.3196,461.1783 865.7696,461.0283 866.2196,461.0283 C 866.8946,461.0283 867.4196,461.2533 867.7946,461.6283 C 868.2446,462.0783 868.4696,462.6783 868.4696,463.3533 C 868.4696,464.0283 868.2446,464.5533 867.8696,465.0033 C 867.4196,465.6033 866.8196,465.9033 865.9946,465.9033 C 865.3196,465.9033 864.7946,465.6783 864.4196,465.3033 C 864.0446,464.9283 863.8196,464.4783 863.7446,463.8783" />
      <path
         id="path2871"
         style="fill:none;stroke:#000000;stroke-width:0.075;stroke-linecap:round;stroke-linejoin:round;stroke-miterlimit:10;stroke-dasharray:none;stroke-opacity:1"
         d="M 138.3446,299.5533 L 863.3696,299.5533" />
      <path
         id="path2873"
         style="fill:none;stroke:#000000;stroke-width:1.27499998;stroke-linecap:round;stroke-linejoin:round;stroke-miterlimit:10;stroke-dasharray:none;stroke-opacity:1"
         d="M 138.3446,346.4283 L 863.3696,346.4283" />
      <path
         id="path2875"
         style="fill:none;stroke:#000000;stroke-width:2.4749999;stroke-linecap:round;stroke-linejoin:round;stroke-miterlimit:10;stroke-dasharray:none;stroke-opacity:1"
         d="M 138.3446,393.3033 L 863.3696,393.3033 M 138.3446,440.1783 L 863.3696,440.1783" />
    </g>
  </g>
  <g
     inkscape:groupmode="layer"
     id="layer2"
     inkscape:label="notes"
     style="display:inline">
    <path
       sodipodi:type="arc"
       style="opacity:1;fill:#000000;fill-opacity:1;stroke:#000000;stroke-opacity:1"
       id="path2897"
       sodipodi:cx="323"
       sodipodi:cy="207.59448"
       sodipodi:rx="12"
       sodipodi:ry="12.5"
       d="M 335,207.59448 A 12,12.5 0 1 1 311,207.59448 A 12,12.5 0 1 1 335,207.59448 z"
       transform="matrix(1.0008088,0,0,0.9607765,-3.261248,5.642589)" />
    <path
       sodipodi:type="arc"
       style="opacity:1;fill:#000000;fill-opacity:1;stroke:#000000;stroke-opacity:1;display:inline"
       id="path3669"
       sodipodi:cx="323"
       sodipodi:cy="207.59448"
       sodipodi:rx="12"
       sodipodi:ry="12.5"
       d="M 335,207.59448 A 12,12.5 0 1 1 311,207.59448 A 12,12.5 0 1 1 335,207.59448 z"
       transform="matrix(1.0008088,0,0,0.9607765,-50.26124,-41.35742)" />
    <path
       sodipodi:type="arc"
       style="opacity:1;fill:#000000;fill-opacity:1;stroke:#000000;stroke-opacity:1;display:inline"
       id="path3671"
       sodipodi:cx="323"
       sodipodi:cy="207.59448"
       sodipodi:rx="12"
       sodipodi:ry="12.5"
       d="M 335,207.59448 A 12,12.5 0 1 1 311,207.59448 A 12,12.5 0 1 1 335,207.59448 z"
       transform="matrix(1.0008088,0,0,0.9607765,86.73876,-41.35742)" />
    <path
       sodipodi:type="arc"
       style="opacity:1;fill:#000000;fill-opacity:1;stroke:#000000;stroke-opacity:1;display:inline"
       id="path3673"
       sodipodi:cx="323"
       sodipodi:cy="207.59448"
       sodipodi:rx="12"
       sodipodi:ry="12.5"
       d="M 335,207.59448 A 12,12.5 0 1 1 311,207.59448 A 12,12.5 0 1 1 335,207.59448 z"
       transform="matrix(1.0008088,0,0,0.9607765,-4.26124,-89.35742)" />
    <path
       sodipodi:type="arc"
       style="opacity:1;fill:#000000;fill-opacity:1;stroke:#000000;stroke-opacity:1;display:inline"
       id="path3675"
       sodipodi:cx="323"
       sodipodi:cy="207.59448"
       sodipodi:rx="12"
       sodipodi:ry="12.5"
       d="M 335,207.59448 A 12,12.5 0 1 1 311,207.59448 A 12,12.5 0 1 1 335,207.59448 z"
       transform="matrix(1.0008088,0,0,0.9607765,86.73876,-89.357418)" />
    <path
       sodipodi:type="arc"
       style="opacity:1;fill:#ff0000;fill-opacity:1;stroke:#000000;stroke-opacity:1;display:inline"
       id="path3677"
       sodipodi:cx="323"
       sodipodi:cy="207.59448"
       sodipodi:rx="12"
       sodipodi:ry="12.5"
       d="M 335,207.59448 A 12,12.5 0 1 1 311,207.59448 A 12,12.5 0 1 1 335,207.59448 z"
       transform="matrix(1.0008088,0,0,0.9607765,-3.26124,-41.35742)" />
    <path
       sodipodi:type="arc"
       style="opacity:1;fill:#00ff00;fill-opacity:1;stroke:#000000;stroke-opacity:1;display:inline"
       id="path3679"
       sodipodi:cx="323"
       sodipodi:cy="207.59448"
       sodipodi:rx="12"
       sodipodi:ry="12.5"
       d="M 335,207.59448 A 12,12.5 0 1 1 311,207.59448 A 12,12.5 0 1 1 335,207.59448 z"
       transform="matrix(1.0008088,0,0,0.9607765,-51.26124,-89.357418)" />
    <path
       sodipodi:type="arc"
       style="opacity:1;fill:#ff0000;fill-opacity:1;stroke:#000000;stroke-opacity:1;display:inline"
       id="path3681"
       sodipodi:cx="323"
       sodipodi:cy="207.59448"
       sodipodi:rx="12"
       sodipodi:ry="12.5"
       d="M 335,207.59448 A 12,12.5 0 1 1 311,207.59448 A 12,12.5 0 1 1 335,207.59448 z"
       transform="matrix(1.0008088,0,0,0.9607765,86.73876,-134.35742)" />
    <path
       sodipodi:type="arc"
       style="opacity:1;fill:#000000;fill-opacity:1;stroke:#000000;stroke-opacity:1;display:inline"
       id="path3683"
       sodipodi:cx="323"
       sodipodi:cy="207.59448"
       sodipodi:rx="12"
       sodipodi:ry="12.5"
       d="M 335,207.59448 A 12,12.5 0 1 1 311,207.59448 A 12,12.5 0 1 1 335,207.59448 z"
       transform="matrix(1.0008088,0,0,0.9607765,42.738758,-135.35742)" />
    <path
       style="fill:none;fill-rule:evenodd;stroke:#000000;stroke-width:1px;stroke-linecap:butt;stroke-linejoin:miter;stroke-opacity:1;marker-end:url(#Arrow1Lend)"
       d="M 320,192.60439 L 320,170.58457"
       id="path5002"
       inkscape:connector-type="polyline"
       inkscape:connection-start="#path2897"
       inkscape:connection-end="#path3677" />
    <path
       style="fill:none;fill-rule:evenodd;stroke:#000000;stroke-width:1px;stroke-linecap:butt;stroke-linejoin:miter;stroke-opacity:1;marker-end:url(#Arrow1Lend)"
       d="M 410,97.604388 L 410,77.584575"
       id="path6048"
       inkscape:connector-type="polyline"
       inkscape:connection-start="#path3675"
       inkscape:connection-end="#path3681" />
    <path
       style="fill:none;fill-rule:evenodd;stroke:#000000;stroke-width:1px;stroke-linecap:butt;stroke-linejoin:miter;stroke-opacity:1;marker-end:url(#Arrow1Lend)"
       d="M 306.48989,110.09448 L 284.51011,110.09448"
       id="path2500"
       inkscape:connector-type="polyline"
       inkscape:connection-start="#path3673"
       inkscape:connection-end="#path3679" />
    <path
       style="fill:none;fill-rule:evenodd;stroke:#000000;stroke-width:1px;stroke-linecap:butt;stroke-linejoin:miter;stroke-opacity:1;marker-end:url(#Arrow1Lend)"
       d="M 378.51011,64.378801 L 397.48989,64.81016"
       id="path5368"
       inkscape:connector-type="polyline"
       inkscape:connection-start="#path3683"
       inkscape:connection-end="#path3681" />
    <path
       style="fill:none;fill-rule:evenodd;stroke:#000000;stroke-width:1px;stroke-linecap:butt;stroke-linejoin:miter;stroke-opacity:1;marker-end:url(#Arrow1Lend)"
       d="M 285.51011,158.09448 L 307.48989,158.09448"
       id="path5891"
       inkscape:connector-type="polyline"
       inkscape:connection-start="#path3669"
       inkscape:connection-end="#path3677" />
    <rect
       style="opacity:1;fill:#8d8d8d;fill-opacity:1;stroke:#000000;stroke-opacity:1"
       id="rect6414"
       width="22"
       height="22"
       x="354.5"
       y="146.59448" />
    <rect
       style="opacity:1;fill:#8d8d8d;fill-opacity:0.39166668;stroke:#000000;stroke-opacity:1;display:inline"
       id="rect6416"
       width="22"
       height="22"
       x="308"
       y="99.594482" />
    <rect
       style="opacity:1;fill:#8d8d8d;fill-opacity:1;stroke:#000000;stroke-opacity:1;display:inline"
       id="rect6418"
       width="22"
       height="22"
       x="445"
       y="99.594482" />
    <rect
       style="opacity:1;fill:#8d8d8d;fill-opacity:0.39166668;stroke:#000000;stroke-opacity:1;display:inline"
       id="rect6420"
       width="22"
       height="22"
       x="354.5"
       y="53.094482" />
    <rect
       style="opacity:1;fill:#8d8d8d;fill-opacity:0.39166668;stroke:#000000;stroke-opacity:1;display:inline"
       id="rect6422"
       width="22"
       height="22"
       x="262"
       y="147.09448" />
    <rect
       style="opacity:1;fill:#8d8d8d;fill-opacity:1;stroke:#000000;stroke-opacity:1;display:inline"
       id="rect6424"
       width="22"
       height="22"
       x="354.5"
       y="193.09448" />
    <rect
       style="opacity:1;fill:#8d8d8d;fill-opacity:1;stroke:#000000;stroke-opacity:1;display:inline"
       id="rect6426"
       width="22"
       height="22"
       x="444.5"
       y="51.594482" />
  </g>
</svg>
